<svg width="330" height="61" viewBox="0 0 330 61" fill="none" xmlns="http://www.w3.org/2000/svg">
<path d="M17.3126 18.8689C18.3292 18.7148 19.1609 18.4376 19.777 18.0063C20.3931 17.575 20.8552 16.9589 21.1324 16.2196C21.3789 15.4803 21.5329 14.5253 21.5329 13.4163C21.5329 12.0917 21.2249 10.9827 20.6087 10.0894C20.2083 9.50405 19.5922 9.04197 18.8528 8.79553C19.3149 8.5799 19.7154 8.24104 20.0234 7.80976C20.5471 7.03963 20.8244 6.08467 20.8244 4.94487C20.8244 3.68186 20.6087 2.69609 20.1467 1.98756C19.6846 1.24824 18.9761 0.755353 18.0519 0.478105C17.1585 0.200858 16.0188 0.0776367 14.6325 0.0776367H0V19.1461H13.6159C15.0946 19.1461 16.3576 19.0537 17.3434 18.8997L17.3126 18.8689ZM17.0969 10.7055C17.5898 10.8903 17.9595 11.1983 18.2367 11.5988C18.514 12.0301 18.6372 12.6154 18.6372 13.4163C18.6372 14.2173 18.5448 14.8334 18.4216 15.2646C18.2675 15.6651 18.0519 15.9424 17.713 16.1272C17.3434 16.312 16.8505 16.4352 16.1728 16.4969C15.4951 16.5585 14.6017 16.5893 13.5543 16.5893H2.80328V10.2742H12.969C13.8008 10.2742 14.5709 10.2742 15.2794 10.3358C15.9571 10.3974 16.5733 10.4898 17.0969 10.7055ZM17.4358 6.91641C17.1278 7.28607 16.604 7.50171 15.9263 7.59413C15.187 7.68654 14.1704 7.71735 12.9998 7.71735H2.83409V2.57286H14.6017C15.4951 2.57286 16.2344 2.63448 16.7273 2.72689C17.1585 2.81931 17.4666 3.00414 17.6514 3.31219C17.8363 3.65105 17.9595 4.17474 17.9595 4.94487C17.9595 5.89984 17.8055 6.57755 17.4666 6.94721L17.4358 6.91641Z" fill="#2D2D2D"/>
<path d="M34.0183 19.0685H36.8832V11.2131L47.3878 0H43.5371L35.4353 8.90273L27.426 0.123221L27.3335 0H23.5137L34.0183 11.2131V19.0685Z" fill="#2D2D2D"/>
<path d="M4.41491 45.0439H30.1728V41.184H4.41491V30.9414H31.308V27.0815H0V59.8023H31.8883V55.9425H4.41491V45.0439Z" fill="#2D2D2D"/>
<path d="M34.6094 30.9414H50.276V59.8023H54.7161V30.9414H70.408V27.0815H34.6094V30.9414Z" fill="#2D2D2D"/>
<path d="M108.512 41.184H80.2567V27.0815H75.8418V59.8023H80.2567V45.0439H108.512V59.8023H112.952V27.0815H108.512V41.184Z" fill="#2D2D2D"/>
<path d="M124.78 45.0439H150.563V41.184H124.78V30.9414H151.673V27.0815H120.365V59.8023H152.254V55.9425H124.78V45.0439Z" fill="#2D2D2D"/>
<path d="M190.121 28.9989C189.137 28.2925 187.649 27.7879 185.731 27.5104C183.864 27.2329 181.367 27.0815 178.289 27.0815H157.047V59.8276H161.462V46.7847H180.08C180.332 46.7847 180.559 46.7847 180.786 46.7847L187.396 59.7014L187.472 59.8276H191.963L185.1 46.4315C187.119 46.1035 188.683 45.5989 189.768 44.8673C190.903 44.0853 191.685 43.0509 192.089 41.7895C192.492 40.5533 192.694 39.0649 192.694 37.3746V36.5421C192.694 34.7004 192.518 33.1615 192.164 31.9506C191.811 30.7144 191.105 29.7053 190.096 28.9989H190.121ZM188.002 40.1749C187.85 40.8561 187.472 41.3606 186.892 41.7391C186.311 42.1175 185.328 42.395 184.041 42.5716C182.729 42.7229 180.887 42.7986 178.566 42.7986H161.462V31.0676H177.532C179.954 31.0676 181.897 31.118 183.36 31.2442C184.773 31.3451 185.857 31.5721 186.564 31.9001C187.245 32.2281 187.674 32.7326 187.901 33.439C188.128 34.1706 188.254 35.205 188.254 36.5168V37.3494C188.254 38.5099 188.153 39.4433 188.002 40.1749Z" fill="#2D2D2D"/>
<path d="M204.034 45.0439H229.792V41.184H204.034V30.9414H230.927V27.0815H199.619V59.8023H231.507V55.9425H204.034V45.0439Z" fill="#2D2D2D"/>
<path d="M268.921 43.8582C268.921 46.2296 268.845 48.1974 268.669 49.7616C268.517 51.3005 268.214 52.5367 267.786 53.4449C267.357 54.3279 266.751 55.009 265.944 55.4379C265.137 55.892 264.077 56.1695 262.79 56.3209C261.479 56.447 259.839 56.5227 257.921 56.5227H250.53C248.612 56.5227 246.972 56.447 245.661 56.3209C244.374 56.1947 243.289 55.892 242.482 55.4379C241.7 55.009 241.094 54.3279 240.665 53.4449C240.237 52.5367 239.934 51.3005 239.782 49.7616C239.631 48.2227 239.53 46.2296 239.53 43.8582V27.0815H235.115V43.8582C235.115 47.3145 235.342 50.1652 235.771 52.3348C236.225 54.5297 237.033 56.2452 238.168 57.4057C239.303 58.5914 240.918 59.3987 242.936 59.8276C244.929 60.2565 247.477 60.4835 250.555 60.4835H257.947C261.024 60.4835 263.572 60.2565 265.566 59.8276C267.584 59.3987 269.173 58.5914 270.308 57.4057C271.444 56.22 272.251 54.5297 272.705 52.3348C273.159 50.1652 273.386 47.3145 273.386 43.8582V27.0815H268.971V43.8582H268.921Z" fill="#2D2D2D"/>
<path d="M323.262 27.0815L304.694 53.1926L285.924 27.1825L285.849 27.0815H279.617V59.8023H284.032V31.7487L302.802 57.5823L302.877 57.6832H306.712L325.053 31.774V59.8023H329.468V27.0815H323.262Z" fill="#2D2D2D"/>
</svg>
