<svg version="1.1" id="Layer_1" xmlns="http://www.w3.org/2000/svg" xmlns:xlink="http://www.w3.org/1999/xlink" x="0px" y="0px"
	 width="100%" viewBox="0 0 500 500" enable-background="new 0 0 500 500" xml:space="preserve">
<path fill="#777081" opacity="1.000000" stroke="none" 
	d="
M216.711395,1.249684 
	C239.354233,1.000000 261.708466,1.000000 284.531342,1.000000 
	C289.595917,2.819176 294.497314,1.949019 299.208679,2.616792 
	C319.300446,5.464530 338.263123,12.100061 356.631531,20.478437 
	C389.226440,35.345913 417.372650,56.425320 441.018036,83.198097 
	C466.274078,111.794510 484.257782,144.549438 494.914337,181.339447 
	C498.163513,192.556885 499.080933,203.988449 500.749146,215.708572 
	C501.000000,239.020889 501.000000,262.041779 501.000000,285.531342 
	C499.222198,289.792603 499.698853,293.914490 499.344116,297.897766 
	C497.806213,315.166260 492.061737,331.297607 485.641388,347.151459 
	C475.182648,372.977112 460.782318,396.574463 442.299438,417.395111 
	C408.900726,455.018250 368.229218,481.371918 319.580170,495.210785 
	C308.701111,498.305481 297.616486,498.998627 286.288879,500.750183 
	C262.979095,501.000000 239.958206,501.000000 216.468658,501.000000 
	C211.775406,499.361755 207.282501,499.985443 202.943619,499.413513 
	C185.872818,497.163483 169.626633,491.828705 153.808441,485.230804 
	C128.563080,474.700836 105.362953,460.640747 84.885933,442.536865 
	C47.316555,409.321442 21.006359,368.796021 7.043785,320.390533 
	C3.744586,308.952820 2.728247,297.287720 1.254728,285.295074 
	C1.000000,262.645782 1.000000,240.291550 1.000000,217.468658 
	C2.927675,212.765518 2.147784,208.190796 2.654699,203.778320 
	C5.050506,182.923767 12.254678,163.515884 20.882887,144.617905 
	C34.901695,113.913162 54.729671,87.338516 79.513916,64.507050 
	C112.169540,34.424393 150.119812,14.202961 193.423630,4.153413 
	C200.988358,2.397866 208.810852,2.856723 216.711395,1.249684 
z"/>
<path fill="#000000" opacity="1.000000" stroke="none" 
	d="
M216.531342,1.000000 
	C215.586716,4.997756 211.666733,3.380073 209.248169,3.745333 
	C190.005569,6.651416 171.569290,12.191052 153.712311,19.727640 
	C129.166962,30.087080 106.943085,44.081959 86.754112,61.585602 
	C58.888882,85.744484 37.342468,114.532074 22.135109,147.966904 
	C13.236506,167.531311 6.801435,187.971436 3.750535,209.405457 
	C3.394484,211.906891 4.236010,215.124664 1.402428,217.130722 
	C1.000000,146.404938 1.037146,75.809807 0.894800,5.215040 
	C0.887363,1.526413 1.757311,0.902215 5.276719,0.908362 
	C75.538544,1.031084 145.800644,1.000000 216.531342,1.000000 
z"/>
<path fill="#000000" opacity="1.000000" stroke="none" 
	d="
M501.000000,215.531342 
	C497.125580,214.540436 498.648468,210.703613 498.231812,208.250244 
	C493.063934,177.818787 482.343231,149.606567 466.712402,122.984474 
	C453.434906,100.370476 436.700439,80.756355 417.512024,63.198219 
	C405.154083,51.890202 391.307587,42.437931 376.831238,33.915627 
	C356.317169,21.838917 334.412109,13.193690 311.428894,7.369992 
	C303.373169,5.328763 295.209015,3.200673 286.773346,2.968331 
	C285.896667,2.944186 285.148682,2.686579 284.876373,1.407911 
	C355.594879,1.000000 426.189819,1.037092 496.784424,0.894916 
	C500.471558,0.887491 501.097992,1.755278 501.091797,5.276168 
	C500.968719,75.204842 501.000000,145.133789 501.000000,215.531342 
z"/>
<path fill="#000000" opacity="1.000000" stroke="none" 
	d="
M1.000000,285.468658 
	C2.362272,284.498322 2.810551,285.326050 2.924987,286.423431 
	C4.927485,305.626160 10.203482,324.017639 17.108480,341.941010 
	C25.655245,364.125916 37.496040,384.451233 51.785763,403.491180 
	C60.599453,415.234802 70.808884,425.565918 81.278862,435.683228 
	C94.573570,448.530151 109.751198,458.890869 125.631599,468.307159 
	C147.128036,481.053467 170.239258,489.667236 194.391495,495.621155 
	C200.736938,497.185394 207.287369,497.924042 213.751526,498.994385 
	C214.740479,499.158142 215.767715,499.073364 216.131592,500.598267 
	C145.738113,501.000000 75.476151,500.962616 5.214556,501.105286 
	C1.524642,501.112762 0.902331,500.240936 0.908468,496.722839 
	C1.031038,426.461151 1.000000,356.199219 1.000000,285.468658 
z"/>
<path fill="#000000" opacity="1.000000" stroke="none" 
	d="
M286.468658,501.000000 
	C287.459900,497.125702 291.297333,498.647888 293.750427,498.232635 
	C322.520630,493.362183 349.328674,483.447937 374.781006,469.186981 
	C399.273315,455.463867 420.585663,437.890228 439.127655,417.119690 
	C456.813171,397.308594 470.876038,374.979645 481.363403,350.416260 
	C490.040314,330.093262 496.194244,309.157135 499.118073,287.260101 
	C499.190979,286.714081 499.824524,286.242889 500.598267,285.868408 
	C501.000000,356.261719 500.962677,426.523499 501.105194,496.784943 
	C501.112671,500.473450 500.242859,501.097809 496.723358,501.091644 
	C426.794830,500.968750 356.866058,501.000000 286.468658,501.000000 
z"/>
<path fill="#000000" opacity="1.000000" stroke="none" 
	d="
M452.707825,117.354248 
	C467.898529,141.244858 478.999908,166.558350 485.728943,193.656448 
	C491.908569,218.542007 493.720184,244.031204 491.759827,269.461304 
	C489.388672,300.221588 481.546753,329.765289 467.824707,357.662659 
	C458.043182,377.548767 445.827301,395.625275 431.299164,412.337891 
	C413.138184,433.229553 391.863770,450.098724 367.819763,463.609131 
	C342.704315,477.721558 315.922882,486.842743 287.390106,491.156616 
	C271.277283,493.592682 255.107925,494.816132 238.930878,493.859863 
	C208.913651,492.085419 180.007629,485.288239 152.466370,472.876190 
	C130.258270,462.867584 110.351097,449.522156 91.988289,433.581726 
	C65.395973,410.497375 45.494480,382.564453 30.980450,350.691437 
	C21.978104,330.922150 16.356539,310.179382 12.762753,288.692566 
	C9.671247,270.208801 9.049100,251.662399 10.293927,233.231094 
	C11.942280,208.825089 17.239695,184.951218 26.424160,162.086517 
	C35.040245,140.636795 46.102589,120.594887 60.234478,102.278442 
	C67.922798,92.313553 76.145172,82.790291 85.358200,74.223175 
	C100.941040,59.732803 117.977043,47.202305 136.734802,37.040104 
	C158.362778,25.322948 181.266769,17.164192 205.350693,12.409484 
	C214.362503,10.630350 223.493057,9.507404 232.709900,8.828997 
	C240.665268,8.243443 248.598938,7.787016 256.540741,8.050126 
	C277.624329,8.748621 298.325470,11.764977 318.640747,17.774549 
	C346.634491,26.055519 372.340607,38.842529 395.554291,56.374821 
	C412.456635,69.140427 427.790070,83.648727 440.545593,100.779701 
	C444.564484,106.177170 448.397644,111.714836 452.707825,117.354248 
z"/>
<path fill="#777081" opacity="1.000000" stroke="none" 
	d="
M377.632782,400.719360 
	C365.059509,410.843781 352.214355,419.977875 338.017914,426.920990 
	C319.530731,435.962555 300.128021,442.030731 279.668640,445.219910 
	C264.593079,447.569885 249.477951,447.783478 234.537201,446.702789 
	C211.889465,445.064545 190.191498,438.932465 169.381699,429.303619 
	C144.714783,417.890106 123.529404,401.966644 105.585503,381.895721 
	C83.214645,356.873047 68.429047,327.731689 60.932835,294.889496 
	C56.974010,277.545258 55.215164,259.989868 56.142052,242.334030 
	C57.475281,216.937973 63.140560,192.522919 73.805153,169.182693 
	C85.302612,144.019669 101.224945,122.208786 121.747231,103.984047 
	C143.311920,84.833618 168.053421,71.164986 195.907791,62.712345 
	C218.746445,55.781769 241.920929,53.911041 265.366974,55.183971 
	C287.086975,56.363190 308.061310,61.747013 328.060577,70.535797 
	C341.779419,76.564606 354.684875,84.026146 366.706024,92.953621 
	C380.430939,103.146370 392.474976,115.060303 403.221497,128.395721 
	C412.348602,139.721603 420.130676,151.850952 426.368805,164.917145 
	C435.308563,183.641983 441.459198,203.242371 444.087799,223.931793 
	C445.552002,235.456558 446.488922,246.992615 445.940552,258.569305 
	C444.766357,283.357391 439.400238,307.164459 429.571320,330.078003 
	C417.757629,357.618530 399.640717,380.337860 377.632782,400.719360 
z"/>
<path fill="#000000" opacity="1.000000" stroke="none" 
	d="
M292.118774,68.926727 
	C320.020660,75.281807 344.608490,87.402771 366.643341,105.028313 
	C387.164246,121.442818 403.204498,141.326553 415.295013,164.595093 
	C424.820038,182.926376 431.255249,202.138489 434.138123,222.644287 
	C436.804993,241.614014 436.776520,260.450104 434.146454,279.423828 
	C431.808197,296.292603 426.911865,312.302094 420.048584,327.795349 
	C418.890625,330.409241 418.532013,332.342255 415.575134,328.434082 
	C394.236938,300.231354 368.764008,276.791382 336.325104,261.732178 
	C319.608459,253.971756 302.140594,248.712524 283.889557,245.924026 
	C272.451385,244.176422 260.929810,242.881989 249.432251,243.138550 
	C216.506836,243.873230 184.900650,250.582642 155.823288,266.694214 
	C141.275818,274.754852 127.858772,284.389771 115.523636,295.720306 
	C104.034309,306.273865 94.199615,318.086395 84.941452,330.502533 
	C84.656677,330.884460 84.185738,331.127533 83.587364,331.606995 
	C74.714882,313.126801 69.234062,293.896973 66.871361,273.603058 
	C63.105713,241.258759 67.176666,210.197281 79.376274,179.963226 
	C86.520187,162.258621 96.307739,146.262207 108.141907,131.515244 
	C121.257729,115.171188 137.262405,101.932030 155.111633,91.006935 
	C174.613312,79.070419 195.685043,71.049377 218.200348,67.059181 
	C231.054855,64.781082 244.073669,63.256527 257.126221,64.116249 
	C268.727234,64.880363 280.418823,65.530243 292.118774,68.926727 
z"/>
<path fill="#000000" opacity="1.000000" stroke="none" 
	d="
M302.978088,428.012268 
	C302.079346,432.834015 297.845093,432.015411 295.214203,432.659180 
	C284.063141,435.387695 272.641174,436.733093 261.211731,437.876984 
	C259.254395,438.072845 258.963837,436.992065 259.017639,435.489014 
	C259.338318,426.538116 257.437347,417.683746 257.922913,408.707581 
	C258.069244,406.002502 258.665253,405.016327 261.567261,404.924286 
	C272.091003,404.590637 282.588806,403.886414 292.847992,401.152527 
	C295.890137,400.341858 297.964691,401.107269 298.568024,404.930573 
	C299.766388,412.524445 301.473694,420.037933 302.978088,428.012268 
z"/>
<path fill="#000000" opacity="1.000000" stroke="none" 
	d="
M199.335236,426.326660 
	C200.706680,419.162537 201.938797,412.390686 203.003952,405.592651 
	C203.603683,401.764893 205.447433,400.113281 209.359650,401.176971 
	C219.433884,403.916077 229.776382,404.641937 240.136597,404.913422 
	C243.226364,404.994385 244.129349,405.873718 244.060394,408.913330 
	C243.861130,417.695007 242.360107,426.420746 242.976974,435.233948 
	C243.091599,436.871399 242.868637,438.083771 240.554749,437.846527 
	C229.621277,436.725464 218.725708,435.382935 207.990753,432.969727 
	C205.438004,432.395844 202.913132,431.676208 200.409317,430.912598 
	C198.001526,430.178284 199.337967,428.180145 199.335236,426.326660 
z"/>
<path fill="#000000" opacity="1.000000" stroke="none" 
	d="
M244.002975,363.289001 
	C244.000656,371.753021 243.855072,379.749817 244.059570,387.737640 
	C244.165573,391.878174 243.761322,392.794464 238.695587,392.434174 
	C229.462372,391.777435 220.446548,389.992096 211.302017,389.023926 
	C208.044418,388.679016 206.334229,387.314514 207.113541,383.923553 
	C209.345978,374.209778 211.963028,364.570984 213.785217,354.782898 
	C214.515671,350.859039 216.625595,350.519653 219.321609,351.093872 
	C226.897629,352.707489 234.461624,354.256653 242.256317,353.985413 
	C244.527893,353.906372 245.246811,354.991943 244.974472,357.003235 
	C244.710907,358.949585 244.332718,360.880402 244.002975,363.289001 
z"/>
<path fill="#000000" opacity="1.000000" stroke="none" 
	d="
M288.711426,357.414734 
	C290.709473,366.429016 292.242737,375.139160 294.473358,383.666870 
	C295.450745,387.403503 294.198517,388.552704 291.055573,388.971252 
	C280.992767,390.311340 270.922699,391.597382 260.856537,392.912689 
	C259.098145,393.142487 257.952209,392.744141 258.003693,390.634399 
	C258.068634,387.974487 257.860199,385.302246 258.027283,382.651520 
	C258.550690,374.349426 257.328094,366.129517 256.946655,357.872467 
	C256.803558,354.774200 257.837585,353.714203 260.897949,353.964722 
	C267.372711,354.494751 273.663666,352.851654 279.973724,351.835083 
	C287.087585,350.689056 287.046844,350.436096 288.711426,357.414734 
z"/>
<path fill="#000000" opacity="1.000000" stroke="none" 
	d="
M197.999619,366.006531 
	C196.658005,371.478485 195.151566,376.493439 194.098038,381.601807 
	C193.617554,383.931641 192.999817,384.143066 190.842987,383.482697 
	C182.227463,380.844727 173.970566,377.306030 165.653793,373.903320 
	C163.389374,372.976837 162.818802,371.872894 164.087891,369.520599 
	C169.074860,360.277130 173.975739,350.983459 178.681870,341.594818 
	C179.870895,339.222717 180.909088,339.044098 183.208481,339.974548 
	C188.649750,342.176453 194.208679,344.096191 199.761780,346.008911 
	C202.085724,346.809387 203.122116,347.631653 202.135025,350.484985 
	C200.432999,355.404968 199.357895,360.541809 197.999619,366.006531 
z"/>
<path fill="#000000" opacity="1.000000" stroke="none" 
	d="
M304.695404,368.378723 
	C302.928558,362.176910 301.668365,356.236206 299.643036,350.568939 
	C298.649475,347.788818 299.680573,346.909363 301.686066,346.168518 
	C307.656708,343.962799 313.702057,341.954651 319.634552,339.653564 
	C321.078827,339.093353 321.486633,339.264771 322.255280,340.528900 
	C328.228088,350.352081 333.311737,360.640442 338.460693,370.900574 
	C339.564178,373.099457 337.619537,373.205688 336.742310,373.573853 
	C328.460876,377.049408 320.262665,380.707916 311.621918,383.328094 
	C308.773193,384.191895 308.119843,383.452393 307.617554,381.185791 
	C306.699493,377.043091 305.796234,372.897095 304.695404,368.378723 
z"/>
<path fill="#000000" opacity="1.000000" stroke="none" 
	d="
M189.639648,403.738800 
	C188.226974,411.333405 187.036896,418.561676 185.785355,426.163391 
	C173.205673,420.960388 161.472641,415.287109 150.383865,408.252838 
	C147.752838,406.583801 147.576706,405.068329 148.763901,402.581451 
	C151.236099,397.402771 153.752899,392.229614 155.855331,386.898041 
	C156.673080,384.824310 157.436371,384.849976 159.097397,385.536255 
	C169.071503,389.656952 179.164505,393.458984 189.318268,397.122833 
	C192.447784,398.252106 188.865738,401.313782 189.639648,403.738800 
z"/>
<path fill="#000000" opacity="1.000000" stroke="none" 
	d="
M350.052612,395.893036 
	C354.898804,405.607208 355.009735,405.783203 346.051788,411.429291 
	C337.288452,416.952789 327.857086,421.232880 318.350098,425.339508 
	C316.304443,426.223175 316.173553,425.344604 315.886749,423.823700 
	C314.315033,415.489349 312.668640,407.169098 311.100220,398.834167 
	C310.749939,396.972687 312.514893,396.550293 313.584869,396.274750 
	C323.290344,393.775116 332.490540,389.913910 341.625793,385.915588 
	C344.321045,384.735962 345.494476,385.491760 346.485840,387.918701 
	C347.539307,390.497589 348.819733,392.983704 350.052612,395.893036 
z"/>
<path fill="#000000" opacity="1.000000" stroke="none" 
	d="
M119.252914,307.248230 
	C119.858673,306.643890 120.197655,306.274902 120.568306,305.941040 
	C125.761238,301.263824 125.748344,301.279053 130.631927,306.120850 
	C133.092270,308.560120 135.379944,311.171875 138.418335,312.998505 
	C140.924255,314.505066 140.951340,316.379578 138.957901,318.584015 
	C131.673141,326.639801 125.710724,335.694153 119.448425,344.667908 
	C113.960083,340.276184 108.457954,335.846344 103.347633,330.926880 
	C101.453133,329.103119 101.043404,327.647339 102.869713,325.618835 
	C108.280212,319.609314 113.628342,313.543610 119.252914,307.248230 
z"/>
<path fill="#000000" opacity="1.000000" stroke="none" 
	d="
M362.038025,317.141785 
	C360.506805,314.624969 362.609772,313.721039 363.697083,312.928650 
	C367.466980,310.181152 370.688080,306.872711 373.899750,303.551605 
	C375.316803,302.086304 376.306702,301.830841 377.974670,303.365540 
	C385.765808,310.534027 393.015869,318.160889 399.385468,326.647980 
	C400.783783,328.511169 400.364929,329.347900 398.958282,330.573212 
	C393.511475,335.317871 388.097717,340.100403 382.724518,344.822388 
	C375.974701,335.333893 369.540466,326.037231 362.038025,317.141785 
z"/>
<path fill="#000000" opacity="1.000000" stroke="none" 
	d="
M163.303192,341.295868 
	C159.433334,348.576416 155.453491,355.404877 152.247955,362.579285 
	C150.695786,366.053192 149.250610,365.445374 146.969757,363.991913 
	C142.143967,360.916656 137.323822,357.832214 132.474930,354.793732 
	C130.411606,353.500824 130.039261,352.025818 131.523621,350.008240 
	C137.828644,341.438141 144.093262,332.838318 150.368668,324.246429 
	C151.400406,322.833862 152.270050,323.138611 153.653519,324.045410 
	C157.618057,326.643890 161.718765,329.046844 165.860489,331.357147 
	C167.639343,332.349457 168.407455,332.937714 166.748840,334.925018 
	C165.311935,336.646698 164.564087,338.943481 163.303192,341.295868 
z"/>
<path fill="#000000" opacity="1.000000" stroke="none" 
	d="
M352.483765,365.172150 
	C350.014313,365.189758 350.140137,363.140808 349.524170,361.928894 
	C344.987457,353.002594 340.617462,343.989807 335.205505,335.541626 
	C333.875671,333.465698 334.062897,332.165955 336.530731,331.095093 
	C339.220612,329.927826 341.760498,328.392151 344.299011,326.903259 
	C350.792389,323.094849 350.899719,322.978729 355.271576,328.859009 
	C360.349792,335.689392 365.162933,342.716370 370.141205,349.621887 
	C371.565491,351.597595 371.913330,352.575836 369.368744,354.502686 
	C364.107513,358.486633 358.249573,361.409393 352.483765,365.172150 
z"/>
<path fill="#000000" opacity="1.000000" stroke="none" 
	d="
M224.935898,314.973907 
	C226.118790,311.523468 226.468781,307.684296 228.566498,305.628540 
	C231.052307,303.192505 234.786377,306.141876 238.072357,306.077423 
	C244.988617,305.941711 244.995956,306.120300 244.998993,312.934265 
	C245.002686,321.243073 244.804108,329.558502 245.085770,337.857727 
	C245.215286,341.673981 243.579315,342.711273 240.423767,341.895264 
	C234.959793,340.482239 229.332153,340.918976 223.811661,340.087097 
	C218.599426,339.301636 217.754196,338.761475 219.106308,334.070312 
	C220.912262,327.804535 222.942596,321.603455 224.935898,314.973907 
z"/>
<path fill="#000000" opacity="1.000000" stroke="none" 
	d="
M281.830933,339.098450 
	C274.261810,341.064056 266.812012,340.679535 259.571655,341.963379 
	C257.633911,342.307007 256.986328,341.188538 256.994080,339.339600 
	C257.035950,329.378265 257.037689,319.416595 257.001099,309.455231 
	C256.990997,306.708221 258.935242,306.275787 260.925354,306.058350 
	C262.731873,305.860962 264.889130,306.600433 266.344543,305.856415 
	C272.671692,302.622101 274.338409,306.437073 275.754913,311.396301 
	C278.173096,319.862640 280.720367,328.294281 283.383911,336.686340 
	C283.863220,338.196564 283.843567,338.827362 281.830933,339.098450 
z"/>
<path fill="#000000" opacity="1.000000" stroke="none" 
	d="
M306.998291,314.970154 
	C309.667542,319.322205 312.104614,323.419769 314.883209,327.270935 
	C316.305542,329.242310 315.974457,330.224060 313.905304,330.930023 
	C308.949860,332.620667 304.011261,334.377289 298.991180,335.853271 
	C297.079712,336.415314 295.541504,336.160034 294.609863,333.452087 
	C291.258942,323.712128 287.441071,314.132843 283.803406,304.491394 
	C283.576324,303.889526 283.018463,302.946014 283.226257,302.717377 
	C285.808075,299.876556 289.757111,300.103821 292.917297,298.530518 
	C294.641571,297.672089 295.324463,298.249939 296.436218,299.721588 
	C300.099274,304.570557 303.725128,309.431793 306.998291,314.970154 
z"/>
<path fill="#000000" opacity="1.000000" stroke="none" 
	d="
M218.084000,301.675964 
	C218.762558,306.231537 216.074356,309.593781 214.728287,313.289307 
	C212.376740,319.745331 209.627808,326.067688 207.726929,332.682922 
	C206.870468,335.663513 205.319077,336.709229 202.375885,335.701416 
	C197.731659,334.111084 193.090927,332.507782 188.419296,331.001282 
	C186.049500,330.237091 185.857559,329.460022 187.194321,327.138702 
	C192.606567,317.740265 198.820587,308.893066 204.945801,299.971863 
	C206.264771,298.050812 207.355698,297.776550 209.435379,298.665375 
	C212.125977,299.815216 215.012085,300.507599 218.084000,301.675964 
z"/>
<path fill="#000000" opacity="1.000000" stroke="none" 
	d="
M347.251038,300.750916 
	C340.958344,294.853760 335.719696,288.366211 328.978516,283.441833 
	C325.702454,281.048706 325.990356,279.708710 329.284912,276.521027 
	C333.842743,272.111053 336.706451,273.214600 341.263428,275.907959 
	C349.600281,280.835388 357.379944,286.507324 365.279724,292.042267 
	C367.145203,293.349274 367.263458,294.400665 365.614197,295.914764 
	C363.901764,297.486908 362.309540,299.190002 360.664276,300.835358 
	C354.000153,307.499725 354.000092,307.499664 347.251038,300.750916 
z"/>
<path fill="#000000" opacity="1.000000" stroke="none" 
	d="
M160.750015,294.750000 
	C157.327133,298.173279 153.959274,301.178925 151.042007,304.571960 
	C148.630936,307.376282 147.025452,306.939819 144.820251,304.410797 
	C142.204865,301.411377 139.274460,298.678558 136.390015,295.925110 
	C134.781036,294.389160 134.867859,293.390930 136.705780,292.040802 
	C145.540314,285.551147 154.564270,279.370789 164.093079,273.923859 
	C166.578537,272.503113 168.451447,272.112640 170.294189,274.730896 
	C170.934296,275.640381 171.918991,276.442230 172.921982,276.937378 
	C176.660965,278.783264 176.506653,280.986176 173.358047,283.049194 
	C168.571945,286.185120 165.161682,290.733093 160.750015,294.750000 
z"/>
<path fill="#000000" opacity="1.000000" stroke="none" 
	d="
M161.021088,317.003448 
	C157.835678,315.316833 159.462280,313.236969 160.636581,312.031403 
	C168.603928,303.852081 176.487320,295.578766 185.233856,288.190948 
	C186.692429,286.958923 187.701096,287.799347 188.713669,288.340088 
	C191.015945,289.569672 193.194412,291.031006 195.614288,292.515350 
	C188.168900,301.521820 181.395920,311.076965 175.412170,321.156555 
	C173.693634,324.051453 172.056931,323.904541 169.678452,322.315155 
	C166.961517,320.499573 164.146973,318.830048 161.021088,317.003448 
z"/>
<path fill="#000000" opacity="1.000000" stroke="none" 
	d="
M341.742554,313.223267 
	C342.812622,314.439514 343.449921,315.120392 341.749390,316.108917 
	C338.081360,318.241119 334.564392,320.638855 331.035736,323.002838 
	C329.244171,324.203064 328.411346,323.587067 327.290588,321.904114 
	C320.951904,312.385986 314.689667,302.806152 307.451538,293.922516 
	C307.071259,293.455811 306.476227,292.831085 306.556152,292.382355 
	C306.839355,290.792480 315.410248,287.205505 316.565247,288.266113 
	C325.185394,296.181671 334.407837,303.497345 341.742554,313.223267 
z"/>
<path fill="#000000" opacity="1.000000" stroke="none" 
	d="
M143.213593,381.481903 
	C141.364105,386.225281 139.648804,390.621521 137.999252,395.042267 
	C136.983139,397.765381 135.619720,397.807861 133.499680,396.040680 
	C127.652443,391.166779 122.361641,385.717438 116.868805,380.472473 
	C114.666557,378.369598 114.910248,376.589752 116.257080,374.431580 
	C118.332191,371.106415 120.428558,367.794586 122.463982,364.559631 
	C129.040253,368.598236 135.577835,372.914856 142.424103,376.668488 
	C145.148575,378.162231 144.561356,379.336700 143.213593,381.481903 
z"/>
<path fill="#000000" opacity="1.000000" stroke="none" 
	d="
M359.136108,376.978516 
	C365.128998,373.295227 370.840393,369.804291 376.378052,366.056671 
	C378.596771,364.555145 379.941376,364.724304 381.025970,367.122406 
	C381.093536,367.271820 381.145325,367.430267 381.227966,367.570679 
	C387.934967,378.963745 388.098785,379.162109 376.685089,388.574585 
	C373.546082,391.163208 371.051697,394.614594 367.212524,396.343170 
	C366.464355,396.680054 365.772675,398.781158 364.827301,396.455750 
	C362.382446,390.441956 359.874420,384.453613 357.492462,378.415344 
	C357.397156,378.173706 358.330719,377.526215 359.136108,376.978516 
z"/>
<path fill="#000000" opacity="1.000000" stroke="none" 
	d="
M111.501846,356.301910 
	C106.343025,367.933350 106.241737,368.009705 98.964386,358.356537 
	C96.030579,354.464966 93.789192,350.057800 90.968414,346.072357 
	C88.960815,343.235809 91.484756,341.605530 92.627609,340.195831 
	C94.350830,338.070312 95.278458,340.938965 96.206451,341.813690 
	C101.238083,346.556458 105.890106,351.702026 111.501846,356.301910 
z"/>
<path fill="#000000" opacity="1.000000" stroke="none" 
	d="
M392.315125,360.733154 
	C389.357727,357.571289 390.415039,355.303680 393.203766,353.296021 
	C398.056335,349.802460 402.016998,345.343658 406.332397,341.265839 
	C406.931213,340.699982 407.585052,338.145660 408.959290,340.318237 
	C409.884064,341.780243 412.959229,342.529236 411.359161,345.020264 
	C406.863281,352.019562 402.214355,358.921692 397.548706,365.809906 
	C396.577148,367.244293 395.536072,367.350800 394.767609,365.410950 
	C394.167084,363.894958 393.285797,362.490173 392.315125,360.733154 
z"/>
<path fill="#000000" opacity="1.000000" stroke="none" 
	d="
M313.974548,271.993591 
	C305.021027,265.395477 294.994446,261.712921 285.211334,257.409637 
	C294.460419,258.552765 303.513824,260.533661 312.422333,263.201416 
	C314.302429,263.764465 316.277679,264.204681 317.975433,265.130188 
	C319.901886,266.180359 323.630066,265.659393 323.566498,268.125885 
	C323.492615,270.991241 319.564606,271.630402 317.573822,273.570862 
	C316.323730,274.789398 315.496399,272.484650 313.974548,271.993591 
z"/>
<path fill="#000000" opacity="1.000000" stroke="none" 
	d="
M179.769196,270.239441 
	C177.085175,268.100006 178.459412,267.026154 180.400696,266.299561 
	C190.181427,262.638824 200.232300,259.898529 210.509552,258.106567 
	C212.223206,257.807770 213.795761,256.311554 216.246841,257.490326 
	C207.049988,261.377441 198.092880,265.038391 190.191193,270.531860 
	C186.409805,273.160767 183.420090,274.075226 179.769196,270.239441 
z"/>
<path fill="#000000" opacity="1.000000" stroke="none" 
	d="
M266.756592,294.127747 
	C263.721436,295.752594 260.859222,294.768555 258.105316,294.943848 
	C255.827042,295.088867 256.016693,293.338287 256.013367,291.860931 
	C255.998779,285.407623 256.007080,278.954285 256.007080,271.911621 
	C260.566742,275.115112 262.023773,279.870758 264.406342,283.925568 
	C265.894928,286.458862 266.994507,289.217560 268.388550,291.810669 
	C269.222382,293.361725 268.667206,293.900909 266.756592,294.127747 
z"/>
<path fill="#000000" opacity="1.000000" stroke="none" 
	d="
M246.000000,284.918121 
	C245.999985,286.064331 246.001114,286.729248 245.999771,287.394196 
	C245.984711,294.799622 241.176849,297.496857 234.435913,294.030975 
	C233.235214,293.413574 232.980087,293.041443 233.566849,291.908722 
	C237.083969,285.118958 239.927429,277.925385 246.000000,271.263123 
	C246.000000,276.337891 246.000000,280.387360 246.000000,284.918121 
z"/>
<path fill="#000000" opacity="1.000000" stroke="none" 
	d="
M245.176422,261.108582 
	C243.103760,260.729553 241.682831,259.947876 240.391281,258.884125 
	C239.259628,257.952087 238.805969,256.762939 239.080978,255.346115 
	C239.472794,253.327591 241.158356,254.059601 242.309341,254.042221 
	C247.964752,253.956757 253.623291,253.941727 259.277954,254.048004 
	C260.555878,254.072037 262.437439,253.187546 262.923035,255.432938 
	C263.341309,257.366852 262.253937,258.745544 260.767090,259.549500 
	C255.963394,262.146973 250.902802,263.023132 245.176422,261.108582 
z"/>
<path fill="#000000" opacity="1.000000" stroke="none" 
	d="
M272.249298,272.749908 
	C278.445892,277.259521 283.190887,282.676331 287.483643,288.529480 
	C287.389313,288.628387 287.313324,288.765228 287.198090,288.820740 
	C279.449493,292.554901 278.251068,292.203918 274.468750,284.943115 
	C271.791962,279.804504 269.170959,274.636841 265.894775,268.254242 
	C268.650940,270.171112 270.324493,271.335022 272.249298,272.749908 
z"/>
<path fill="#000000" opacity="1.000000" stroke="none" 
	d="
M217.303436,285.162720 
	C221.622375,278.654877 227.371887,274.323700 234.588898,269.551392 
	C231.790833,278.095215 226.979904,284.067780 223.979492,290.920471 
	C223.556686,291.886169 222.989822,291.956146 222.038986,291.535400 
	C219.564789,290.440613 216.742096,290.190430 214.291580,288.423523 
	C215.277435,287.350708 216.166702,286.382996 217.303436,285.162720 
z"/>
<path fill="#000000" opacity="1.000000" stroke="none" 
	d="
M302.875183,282.025146 
	C299.868988,284.360474 297.914062,283.724731 295.569519,281.202026 
	C290.335022,275.569763 284.969330,270.017029 278.198517,265.870148 
	C280.008057,264.138214 281.282501,265.575836 282.297852,266.141174 
	C289.553650,270.181152 296.770660,274.275970 303.755493,278.806122 
	C307.316956,281.115997 304.169769,281.056152 302.875183,282.025146 
z"/>
<path fill="#000000" opacity="1.000000" stroke="none" 
	d="
M221.832092,266.173401 
	C215.948120,272.106445 210.178040,277.459351 204.549515,282.957153 
	C203.196579,284.278656 202.248032,283.630005 201.079987,283.019043 
	C199.507431,282.196503 197.926941,281.389099 195.892792,280.339325 
	C204.048126,275.150757 211.690125,269.862396 220.565979,265.965149 
	C221.283981,265.827667 221.640945,265.737061 221.832092,266.173401 
z"/>
<path fill="#000000" opacity="1.000000" stroke="none" 
	d="
M221.111755,266.113831 
	C221.922760,264.968719 222.955704,264.108185 224.518005,264.271301 
	C224.347336,265.841919 223.080688,265.865265 221.916718,266.510986 
	C221.543030,266.570068 221.419785,266.439758 221.111755,266.113831 
z"/>
<path fill="#000000" opacity="1.000000" stroke="none" 
	d="
M234.195923,270.223450 
	C234.386368,269.721039 234.990402,269.316406 235.014893,269.348907 
	C235.664932,270.210693 234.790970,270.249451 234.195923,270.223450 
z"/>
<path fill="#777081" opacity="1.000000" stroke="none" 
	d="
M390.740326,236.760132 
	C384.412994,244.968369 377.138947,252.005844 372.419556,260.990051 
	C371.239532,263.236450 369.359344,263.059570 367.438019,261.769379 
	C363.351410,259.025238 359.185394,256.393433 355.183044,253.532166 
	C353.010468,251.979004 351.078857,249.938110 351.057434,247.059341 
	C351.010529,240.758896 349.158661,234.710236 348.765106,228.210281 
	C345.098419,228.738617 344.479828,232.033005 342.963104,234.296692 
	C337.390778,242.613129 337.483459,242.564438 328.546234,238.259842 
	C324.420441,236.272659 320.089691,234.714310 315.874573,232.908478 
	C312.136597,231.307068 309.819885,229.101425 309.897491,224.358505 
	C310.258881,202.265884 306.893951,180.798813 298.240417,160.298431 
	C297.576691,158.726074 296.749634,157.013260 296.978271,155.063583 
	C297.243317,152.802887 298.259216,151.344284 300.509583,152.318207 
	C309.089508,156.031479 317.853912,159.453262 325.114746,165.616959 
	C331.544678,171.075317 332.012787,179.038315 334.127411,186.411575 
	C335.479065,191.124680 334.230835,195.922211 335.728149,200.588425 
	C336.729034,203.707581 337.875854,203.542969 339.745850,201.726288 
	C343.330750,198.243530 346.793488,194.635086 350.375031,191.148834 
	C355.209381,186.443069 357.206909,186.837036 359.047577,193.184021 
	C361.277832,200.874146 363.139191,208.670685 365.239014,216.399750 
	C365.560181,217.581863 366.145569,219.454819 366.887817,219.602112 
	C368.462708,219.914658 369.404633,218.325424 369.988983,216.939117 
	C371.454559,213.462128 374.392151,210.864380 375.514740,207.134018 
	C376.355957,204.338638 378.733887,204.075867 380.445099,206.091736 
	C386.296753,212.985413 392.022308,219.998642 397.483826,227.202927 
	C398.999969,229.202850 397.305634,231.554565 395.512665,232.667236 
	C393.763489,233.752747 392.492249,235.220627 390.740326,236.760132 
z"/>
<path fill="#777081" opacity="1.000000" stroke="none" 
	d="
M192.283813,198.463745 
	C191.984467,208.461731 189.572830,217.875458 190.004578,227.492538 
	C190.148224,230.691895 187.817673,231.863846 185.522400,232.693436 
	C179.178528,234.986328 172.978119,237.547531 167.288239,241.201462 
	C164.409058,243.050415 162.659531,241.561722 161.098053,239.337662 
	C159.030060,236.392242 157.063553,233.372620 154.909821,230.492279 
	C154.298447,229.674622 153.484268,228.150345 152.273163,228.880905 
	C151.488129,229.354462 150.812912,230.660858 151.008148,231.960342 
	C151.660797,236.304398 150.020203,240.465332 149.974243,244.763840 
	C149.931381,248.772858 148.517395,251.955688 144.771255,254.136459 
	C140.809616,256.442657 137.211029,259.363922 133.332169,261.824707 
	C131.526443,262.970306 129.541550,263.996521 127.985855,261.054321 
	C122.371635,250.436478 114.482376,241.584320 105.828293,233.408569 
	C102.929527,230.670029 102.074417,228.405411 104.930321,225.047668 
	C109.821884,219.296570 114.320755,213.212952 119.154526,207.410553 
	C121.395958,204.719955 123.496338,203.085281 125.316498,208.277679 
	C126.528809,211.736038 129.197235,214.703979 131.347580,217.798553 
	C131.844681,218.513916 131.862335,220.012405 133.221756,219.761246 
	C134.534454,219.518707 134.753174,218.340027 135.072113,217.156815 
	C137.324417,208.801346 139.729156,200.486923 141.973267,192.129318 
	C143.302521,187.178955 144.193497,186.999603 148.546127,189.947632 
	C153.150497,193.066147 156.524002,197.408691 160.576309,201.062576 
	C161.542313,201.933624 162.321487,203.302505 163.875076,202.856506 
	C165.722702,202.326111 164.859161,200.654037 164.975037,199.473358 
	C165.760025,191.474640 166.796768,183.479797 169.232895,175.832932 
	C171.066238,170.078171 174.764923,165.453964 180.199905,162.320419 
	C186.180084,158.872482 192.188370,155.476227 198.720169,153.237244 
	C199.973511,152.807632 201.725342,150.992584 203.202621,152.869064 
	C204.573151,154.609970 204.075729,156.465256 203.231613,158.432526 
	C200.071655,165.797150 197.301147,173.329117 195.482178,181.135529 
	C194.184540,186.704590 193.448502,192.404526 192.283813,198.463745 
z"/>
</svg>