<svg version="1.1" id="Layer_1" xmlns="http://www.w3.org/2000/svg" xmlns:xlink="http://www.w3.org/1999/xlink" x="0px" y="0px"
	 width="100%" viewBox="0 0 599 591" enable-background="new 0 0 599 591" xml:space="preserve">
<path fill="#000000" opacity="1.000000" stroke="none" 
	d="
M332.000000,592.000000 
	C310.979095,592.000000 289.958221,592.000000 268.465881,591.614624 
	C266.676910,589.718323 265.399994,588.307190 263.547882,590.710022 
	C263.274902,591.064148 261.905975,591.166077 261.717621,590.902832 
	C259.339447,587.578918 255.396042,589.449219 252.760590,589.196777 
	C246.505554,588.597717 240.799103,586.010681 234.513275,585.560852 
	C228.482391,585.129150 222.680252,582.019592 216.626907,581.200989 
	C212.614456,580.658386 210.149323,575.674316 205.528717,577.846252 
	C204.709991,575.895447 203.417038,575.981934 201.357193,575.690125 
	C197.434982,575.134338 194.013657,572.184570 189.745636,571.769287 
	C189.184601,571.714722 188.849426,569.338867 188.414917,568.053772 
	C179.812393,568.770813 179.708862,568.719421 180.354904,563.442627 
	C176.574097,567.732849 173.824387,565.331726 170.919067,562.744019 
	C169.240738,561.249207 167.349808,559.821106 165.304047,558.953857 
	C162.691605,557.846313 159.538361,557.839661 157.128464,556.464417 
	C151.663254,553.345520 146.642761,549.523010 141.124313,546.390564 
	C135.298828,543.083740 130.347656,538.272339 124.817154,534.400085 
	C119.280884,530.523865 113.331009,527.227356 107.886917,523.234375 
	C104.243561,520.562195 101.157120,517.127869 97.839722,514.015137 
	C95.415009,511.739990 92.961105,509.490845 90.637199,507.115631 
	C89.517532,505.971283 88.804855,504.425110 87.672012,503.297943 
	C82.838242,498.488403 77.803772,493.875000 73.096519,488.947418 
	C71.712021,487.498077 66.530945,480.748535 64.834122,478.886353 
	C64.140388,478.124939 64.388832,476.505035 64.235504,475.459076 
	C63.031696,474.960114 61.232349,474.785248 60.511139,473.811707 
	C58.034401,470.468445 55.887207,466.875031 53.700909,463.323700 
	C46.125610,451.018768 37.925953,439.038116 31.226900,426.271332 
	C24.991663,414.388489 19.868532,401.844177 15.214642,389.237122 
	C12.165878,380.978210 10.817814,372.090790 8.718872,363.482208 
	C7.125401,356.946777 5.502888,350.417877 3.980707,343.865753 
	C2.911053,339.261505 1.988335,334.623138 1.000002,330.000000 
	C1.000000,307.645782 1.000000,285.291534 1.380824,262.465454 
	C2.503881,259.177948 4.180152,256.227600 3.797514,253.574203 
	C2.952528,247.714584 4.878984,242.772659 6.486839,237.366867 
	C8.918402,229.191635 8.976489,220.286880 11.602235,212.198242 
	C16.088821,198.377243 21.345764,184.758118 27.140007,171.428421 
	C30.462284,163.785507 35.544350,156.916290 39.714489,149.630264 
	C42.669693,144.466965 45.067791,138.950974 48.356987,134.021027 
	C52.708595,127.498718 57.615566,121.339310 62.417133,115.126945 
	C67.332085,108.767883 72.106361,102.259041 77.501266,96.323936 
	C82.541008,90.779556 88.171097,85.739502 93.803368,80.774719 
	C99.960449,75.347321 106.321983,70.138756 112.773956,65.063019 
	C118.371574,60.659412 124.111801,56.415787 129.996857,52.406559 
	C133.722580,49.868382 137.928467,48.045242 141.739655,45.619614 
	C146.255753,42.745346 150.320679,39.067745 155.041595,36.630119 
	C163.866653,32.073360 172.962631,28.020496 182.062256,24.022877 
	C189.353485,20.819708 196.642700,17.425425 204.243088,15.154366 
	C216.991653,11.344992 229.947220,8.192140 242.906128,5.148069 
	C246.225143,4.368425 249.882919,5.031026 253.385071,5.031026 
	C253.317841,4.836298 253.250595,4.641570 253.183365,4.446842 
	C255.296646,4.115628 257.409912,3.784415 259.523193,3.453202 
	C262.778137,1.307021 266.578003,0.887091 269.758362,3.559591 
	C270.169464,2.712079 270.584747,1.856037 271.000000,0.999998 
	C291.354218,1.000000 311.708466,1.000000 332.685364,1.399159 
	C336.378662,2.195989 339.443329,2.648986 342.520935,2.982328 
	C362.143066,5.107655 381.508270,8.780230 399.807098,16.172037 
	C417.971832,23.509710 435.927795,31.518152 453.388519,40.387592 
	C463.955200,45.755108 473.666809,52.963581 483.274994,60.009823 
	C490.771576,65.507530 497.828583,71.708328 504.508636,78.186798 
	C511.256561,84.731117 517.332092,91.972916 523.642700,98.962868 
	C529.650391,105.617386 535.888855,112.098434 541.435486,119.121910 
	C544.998840,123.633987 546.689453,129.784317 550.646729,133.790619 
	C557.530701,140.760010 560.397034,149.766312 564.991211,157.882950 
	C567.367737,162.081711 569.295593,166.534760 571.419678,170.876099 
	C574.948853,178.089584 579.335449,185.022446 581.816772,192.580460 
	C586.761047,207.640366 591.014709,222.955963 594.820801,238.347153 
	C596.482422,245.066238 595.750610,252.364700 597.280945,259.134399 
	C597.984985,262.249054 599.842712,264.789825 597.527100,267.868042 
	C597.483582,267.925842 599.137878,269.260864 600.000000,270.000000 
	C600.000000,273.030609 600.000000,276.061188 599.644775,279.647217 
	C599.526428,281.468384 599.763245,282.734192 600.000000,284.000000 
	C600.000000,297.020905 600.000000,310.041779 599.621155,323.659760 
	C598.551575,326.341736 597.413452,328.397736 597.276367,330.518402 
	C597.077515,333.596436 597.555786,336.382751 596.606201,339.768494 
	C594.091858,348.734039 594.111206,358.397675 591.728394,367.415192 
	C587.032227,385.187592 581.015503,402.582581 572.932312,419.156708 
	C570.613037,423.912354 567.536011,428.292877 565.070190,432.984070 
	C562.614319,437.656372 560.935608,442.786743 558.119507,447.208954 
	C553.430542,454.572235 548.299255,461.678070 543.003784,468.625183 
	C534.800537,479.386932 526.791077,490.362366 517.770996,500.413940 
	C510.885468,508.086945 502.574524,514.483582 494.867340,521.414246 
	C493.148254,522.960083 491.384613,524.481445 489.499420,525.812805 
	C483.652405,529.942139 477.736481,533.973816 471.848389,538.044983 
	C469.276123,539.823547 466.677490,541.565735 464.143219,543.396973 
	C461.231354,545.501038 458.503662,547.888367 455.462708,549.777100 
	C452.479492,551.629944 449.171661,552.951721 446.062042,554.610962 
	C437.946014,558.941650 429.905151,563.416199 421.729767,567.630493 
	C419.792542,568.629089 417.363373,568.626587 415.303711,569.445007 
	C411.869476,570.809570 408.618958,572.646729 405.162811,573.942871 
	C402.191742,575.057068 398.983490,575.529602 395.988098,576.590759 
	C393.419617,577.500610 391.110352,579.311829 388.500427,579.902588 
	C381.344666,581.522278 374.045471,582.509155 366.891418,584.135315 
	C361.836517,585.284241 356.975891,587.272217 351.935608,588.506104 
	C347.450378,589.604126 342.839020,590.189880 338.279968,590.982361 
	C336.190826,591.345520 334.093567,591.662231 332.000000,592.000000 
M562.997620,307.737488 
	C562.335754,306.609222 560.940247,305.331787 561.134277,304.377533 
	C562.185669,299.206116 562.773743,294.356018 561.236694,288.931549 
	C559.658386,283.361389 563.591736,277.325470 560.293762,271.193481 
	C559.041443,268.865082 560.392334,265.032227 559.209778,261.655579 
	C557.684998,257.301788 557.700256,252.415543 556.987854,247.768494 
	C556.253479,242.978500 556.020447,238.012115 554.539001,233.457626 
	C551.761963,224.919815 548.301392,216.600327 545.015442,208.233139 
	C541.744934,199.905441 538.485413,191.567398 534.922791,183.363419 
	C533.467651,180.012558 531.214050,177.010574 529.348633,173.835266 
	C525.994141,168.125183 522.909180,162.237564 519.250977,156.730042 
	C514.753296,149.958664 509.870239,143.435913 504.991486,136.927322 
	C500.996429,131.597702 497.400543,125.729866 492.498138,121.371025 
	C483.416199,113.296082 475.885162,103.613724 465.537750,96.797394 
	C455.541809,90.212639 446.586945,82.048225 436.595459,75.455757 
	C430.135254,71.193268 422.695709,68.371529 415.581696,65.154839 
	C406.981262,61.266075 398.323914,57.486336 389.570679,53.958466 
	C383.743713,51.610001 377.802368,49.417355 371.736572,47.823643 
	C365.068146,46.071606 358.172577,45.203682 351.424896,43.726952 
	C346.652222,42.682449 342.021271,40.869427 337.214691,40.138004 
	C333.197540,39.526714 329.002228,40.205700 324.912689,39.923588 
	C317.954926,39.443626 311.029480,38.381607 304.068726,38.098022 
	C299.508331,37.912224 294.904663,38.610554 290.329224,39.013023 
	C283.353607,39.626614 276.358673,40.123539 269.421265,41.042381 
	C260.983337,42.159969 252.587311,43.608875 244.190796,45.019482 
	C238.256287,46.016472 232.108200,46.486477 226.485443,48.433502 
	C216.063324,52.042412 205.863480,56.348351 195.745636,60.763958 
	C187.069580,64.550339 178.597687,68.815384 170.112534,73.024048 
	C165.245728,75.437996 160.151627,77.645943 155.822723,80.843918 
	C143.749512,89.763016 131.559372,98.624359 120.309280,108.524284 
	C111.801987,116.010574 104.544014,124.947701 96.979362,133.460693 
	C93.305077,137.595612 90.029732,142.119171 86.881470,146.679199 
	C82.393120,153.180252 77.942993,159.731979 73.925789,166.527618 
	C69.350494,174.267365 64.607735,182.017822 61.102989,190.259155 
	C52.215641,211.157547 45.662495,232.819855 41.981495,255.294357 
	C41.570919,257.801117 40.240952,260.205261 40.104256,262.699036 
	C39.806530,268.130493 40.259857,273.604828 39.926697,279.032166 
	C39.589779,284.520782 38.635799,289.969727 38.040508,295.445648 
	C37.899258,296.744995 37.568249,298.690002 38.251511,299.300415 
	C41.696915,302.378510 39.625282,305.834167 39.405342,309.188507 
	C39.211048,312.151703 38.874264,315.149170 39.133022,318.084595 
	C39.339546,320.427551 40.636833,322.661743 40.946167,325.010590 
	C41.892967,332.199707 42.151672,339.507080 43.526794,346.604004 
	C44.777836,353.060577 46.988792,359.351349 49.045452,365.627075 
	C52.334652,375.663788 55.179287,385.924072 59.452312,395.538483 
	C63.685215,405.062622 69.401169,413.933990 74.565475,423.035583 
	C78.237122,429.506500 81.660355,436.176117 85.942238,442.227997 
	C90.997162,449.372345 96.496346,456.282837 102.454475,462.688690 
	C111.231018,472.124725 120.180962,481.455353 129.920105,489.912994 
	C135.817215,495.034119 142.351517,499.418365 148.557953,504.187805 
	C151.414886,506.383240 154.022324,508.934479 157.013275,510.916321 
	C160.532181,513.248047 164.325409,515.171692 168.033401,517.210938 
	C176.419022,521.822693 184.686768,526.680054 193.274628,530.881226 
	C198.519806,533.447205 204.328812,534.836365 209.765091,537.047791 
	C211.976944,537.947510 214.247345,541.090027 215.841904,540.681030 
	C220.988449,539.360901 224.737549,542.511108 229.029404,543.672180 
	C232.391052,544.581726 235.352097,547.055420 238.722031,547.831360 
	C243.828552,549.007202 249.158844,549.171265 254.350601,550.028442 
	C259.227783,550.833618 264.010529,552.306396 268.905762,552.877380 
	C273.115967,553.368408 277.506989,552.493896 281.669861,553.155518 
	C285.931763,553.832764 289.889313,554.703857 294.425934,554.201660 
	C306.740631,552.838318 319.229736,556.000061 331.652893,552.319885 
	C335.369934,551.218750 339.695343,550.997986 343.739716,550.092773 
	C352.472595,548.138306 361.525543,548.127075 369.972839,544.210449 
	C375.696228,541.556702 382.196259,540.558350 388.376495,538.923889 
	C389.897491,538.521606 391.839691,539.018677 393.046204,538.250671 
	C396.636627,535.965149 399.756531,533.272522 404.608459,533.548157 
	C406.907471,533.678833 409.484894,531.951843 411.661255,530.617920 
	C417.762726,526.878113 423.871613,523.113647 429.670593,518.933044 
	C432.437408,516.938477 435.729675,516.627197 438.584961,514.201965 
	C445.063049,508.699707 452.764496,504.640167 459.954590,499.972504 
	C462.507690,498.315033 466.259247,497.134857 467.282257,494.786469 
	C469.163788,490.467255 473.120056,489.645294 476.169342,487.313171 
	C477.148163,486.564575 478.174622,485.815857 478.953979,484.879608 
	C482.163086,481.024475 484.523376,475.378693 488.604858,473.568573 
	C496.173767,470.211731 497.291748,461.742859 503.796478,457.672638 
	C507.058044,455.631836 508.316376,450.544861 510.806732,447.069122 
	C512.964233,444.057953 515.930115,441.599243 517.914429,438.497101 
	C520.887939,433.848633 523.215637,428.792572 526.006226,424.019928 
	C528.177246,420.306824 531.022888,416.948029 532.874939,413.098022 
	C535.643250,407.343292 537.691284,401.247223 540.241211,395.381317 
	C547.612610,378.423767 553.895691,361.129974 557.051270,342.827240 
	C557.432617,340.615753 557.855469,338.405304 558.398132,336.229034 
	C559.547668,331.618256 560.819214,327.037659 561.936768,322.419556 
	C562.028503,322.040192 561.055664,321.476624 561.042358,320.986023 
	C560.974548,318.479187 560.834900,315.937805 561.169312,313.469299 
	C561.395752,311.797394 562.363586,310.225952 562.997620,307.737488 
z"/>
<path fill="#FFFFFF" opacity="1.000000" stroke="none" 
	d="
M332.468658,592.000000 
	C334.093567,591.662231 336.190826,591.345520 338.279968,590.982361 
	C342.839020,590.189880 347.450378,589.604126 351.935608,588.506104 
	C356.975891,587.272217 361.836517,585.284241 366.891418,584.135315 
	C374.045471,582.509155 381.344666,581.522278 388.500427,579.902588 
	C391.110352,579.311829 393.419617,577.500610 395.988098,576.590759 
	C398.983490,575.529602 402.191742,575.057068 405.162811,573.942871 
	C408.618958,572.646729 411.869476,570.809570 415.303711,569.445007 
	C417.363373,568.626587 419.792542,568.629089 421.729767,567.630493 
	C429.905151,563.416199 437.946014,558.941650 446.062042,554.610962 
	C449.171661,552.951721 452.479492,551.629944 455.462708,549.777100 
	C458.503662,547.888367 461.231354,545.501038 464.143219,543.396973 
	C466.677490,541.565735 469.276123,539.823547 471.848389,538.044983 
	C477.736481,533.973816 483.652405,529.942139 489.499420,525.812805 
	C491.384613,524.481445 493.148254,522.960083 494.867340,521.414246 
	C502.574524,514.483582 510.885468,508.086945 517.770996,500.413940 
	C526.791077,490.362366 534.800537,479.386932 543.003784,468.625183 
	C548.299255,461.678070 553.430542,454.572235 558.119507,447.208954 
	C560.935608,442.786743 562.614319,437.656372 565.070190,432.984070 
	C567.536011,428.292877 570.613037,423.912354 572.932312,419.156708 
	C581.015503,402.582581 587.032227,385.187592 591.728394,367.415192 
	C594.111206,358.397675 594.091858,348.734039 596.606201,339.768494 
	C597.555786,336.382751 597.077515,333.596436 597.276367,330.518402 
	C597.413452,328.397736 598.551575,326.341736 599.621155,324.128418 
	C600.000000,413.260406 600.000000,502.520782 600.000000,592.000000 
	C510.979218,592.000000 421.958282,592.000000 332.468658,592.000000 
z"/>
<path fill="#FFFFFF" opacity="1.000000" stroke="none" 
	d="
M1.000002,330.468658 
	C1.988335,334.623138 2.911053,339.261505 3.980707,343.865753 
	C5.502888,350.417877 7.125401,356.946777 8.718872,363.482208 
	C10.817814,372.090790 12.165878,380.978210 15.214642,389.237122 
	C19.868532,401.844177 24.991663,414.388489 31.226900,426.271332 
	C37.925953,439.038116 46.125610,451.018768 53.700909,463.323700 
	C55.887207,466.875031 58.034401,470.468445 60.511139,473.811707 
	C61.232349,474.785248 63.031696,474.960114 64.235504,475.459076 
	C64.388832,476.505035 64.140388,478.124939 64.834122,478.886353 
	C66.530945,480.748535 71.712021,487.498077 73.096519,488.947418 
	C77.803772,493.875000 82.838242,498.488403 87.672012,503.297943 
	C88.804855,504.425110 89.517532,505.971283 90.637199,507.115631 
	C92.961105,509.490845 95.415009,511.739990 97.839722,514.015137 
	C101.157120,517.127869 104.243561,520.562195 107.886917,523.234375 
	C113.331009,527.227356 119.280884,530.523865 124.817154,534.400085 
	C130.347656,538.272339 135.298828,543.083740 141.124313,546.390564 
	C146.642761,549.523010 151.663254,553.345520 157.128464,556.464417 
	C159.538361,557.839661 162.691605,557.846313 165.304047,558.953857 
	C167.349808,559.821106 169.240738,561.249207 170.919067,562.744019 
	C173.824387,565.331726 176.574097,567.732849 180.354904,563.442627 
	C179.708862,568.719421 179.812393,568.770813 188.414917,568.053772 
	C188.849426,569.338867 189.184601,571.714722 189.745636,571.769287 
	C194.013657,572.184570 197.434982,575.134338 201.357193,575.690125 
	C203.417038,575.981934 204.709991,575.895447 205.528717,577.846252 
	C210.149323,575.674316 212.614456,580.658386 216.626907,581.200989 
	C222.680252,582.019592 228.482391,585.129150 234.513275,585.560852 
	C240.799103,586.010681 246.505554,588.597717 252.760590,589.196777 
	C255.396042,589.449219 259.339447,587.578918 261.717621,590.902832 
	C261.905975,591.166077 263.274902,591.064148 263.547882,590.710022 
	C265.399994,588.307190 266.676910,589.718323 267.997253,591.614624 
	C179.073639,592.000000 90.147270,592.000000 1.000000,592.000000 
	C1.000000,504.979218 1.000000,417.958282 1.000002,330.468658 
z"/>
<path fill="#FFFFFF" opacity="1.000000" stroke="none" 
	d="
M600.000000,269.531342 
	C599.137878,269.260864 597.483582,267.925842 597.527100,267.868042 
	C599.842712,264.789825 597.984985,262.249054 597.280945,259.134399 
	C595.750610,252.364700 596.482422,245.066238 594.820801,238.347153 
	C591.014709,222.955963 586.761047,207.640366 581.816772,192.580460 
	C579.335449,185.022446 574.948853,178.089584 571.419678,170.876099 
	C569.295593,166.534760 567.367737,162.081711 564.991211,157.882950 
	C560.397034,149.766312 557.530701,140.760010 550.646729,133.790619 
	C546.689453,129.784317 544.998840,123.633987 541.435486,119.121910 
	C535.888855,112.098434 529.650391,105.617386 523.642700,98.962868 
	C517.332092,91.972916 511.256561,84.731117 504.508636,78.186798 
	C497.828583,71.708328 490.771576,65.507530 483.274994,60.009823 
	C473.666809,52.963581 463.955200,45.755108 453.388519,40.387592 
	C435.927795,31.518152 417.971832,23.509710 399.807098,16.172037 
	C381.508270,8.780230 362.143066,5.107655 342.520935,2.982328 
	C339.443329,2.648986 336.378662,2.195989 333.153992,1.399159 
	C421.927307,1.000000 510.854614,1.000000 600.000000,1.000000 
	C600.000000,90.354111 600.000000,179.708389 600.000000,269.531342 
z"/>
<path fill="#FFFFFF" opacity="1.000000" stroke="none" 
	d="
M270.531342,0.999998 
	C270.584747,1.856037 270.169464,2.712079 269.758362,3.559591 
	C266.578003,0.887091 262.778137,1.307021 259.523193,3.453202 
	C257.409912,3.784415 255.296646,4.115628 253.183365,4.446842 
	C253.250595,4.641570 253.317841,4.836298 253.385071,5.031026 
	C249.882919,5.031026 246.225143,4.368425 242.906128,5.148069 
	C229.947220,8.192140 216.991653,11.344992 204.243088,15.154366 
	C196.642700,17.425425 189.353485,20.819708 182.062256,24.022877 
	C172.962631,28.020496 163.866653,32.073360 155.041595,36.630119 
	C150.320679,39.067745 146.255753,42.745346 141.739655,45.619614 
	C137.928467,48.045242 133.722580,49.868382 129.996857,52.406559 
	C124.111801,56.415787 118.371574,60.659412 112.773956,65.063019 
	C106.321983,70.138756 99.960449,75.347321 93.803368,80.774719 
	C88.171097,85.739502 82.541008,90.779556 77.501266,96.323936 
	C72.106361,102.259041 67.332085,108.767883 62.417133,115.126945 
	C57.615566,121.339310 52.708595,127.498718 48.356987,134.021027 
	C45.067791,138.950974 42.669693,144.466965 39.714489,149.630264 
	C35.544350,156.916290 30.462284,163.785507 27.140007,171.428421 
	C21.345764,184.758118 16.088821,198.377243 11.602235,212.198242 
	C8.976489,220.286880 8.918402,229.191635 6.486839,237.366867 
	C4.878984,242.772659 2.952528,247.714584 3.797514,253.574203 
	C4.180152,256.227600 2.503881,259.177948 1.380824,261.996765 
	C1.000000,175.071732 1.000000,88.143456 1.000000,1.000000 
	C90.687447,1.000000 180.375061,1.000000 270.531342,0.999998 
z"/>
<path fill="#FFFFFF" opacity="1.000000" stroke="none" 
	d="
M600.000000,283.599976 
	C599.763245,282.734192 599.526428,281.468384 599.644775,280.101318 
	C600.000000,281.066650 600.000000,282.133301 600.000000,283.599976 
z"/>
<path fill="#FFFFFF" opacity="1.000000" stroke="none" 
	d="
M562.998779,308.173523 
	C562.363586,310.225952 561.395752,311.797394 561.169312,313.469299 
	C560.834900,315.937805 560.974548,318.479187 561.042358,320.986023 
	C561.055664,321.476624 562.028503,322.040192 561.936768,322.419556 
	C560.819214,327.037659 559.547668,331.618256 558.398132,336.229034 
	C557.855469,338.405304 557.432617,340.615753 557.051270,342.827240 
	C553.895691,361.129974 547.612610,378.423767 540.241211,395.381317 
	C537.691284,401.247223 535.643250,407.343292 532.874939,413.098022 
	C531.022888,416.948029 528.177246,420.306824 526.006226,424.019928 
	C523.215637,428.792572 520.887939,433.848633 517.914429,438.497101 
	C515.930115,441.599243 512.964233,444.057953 510.806732,447.069122 
	C508.316376,450.544861 507.058044,455.631836 503.796478,457.672638 
	C497.291748,461.742859 496.173767,470.211731 488.604858,473.568573 
	C484.523376,475.378693 482.163086,481.024475 478.953979,484.879608 
	C478.174622,485.815857 477.148163,486.564575 476.169342,487.313171 
	C473.120056,489.645294 469.163788,490.467255 467.282257,494.786469 
	C466.259247,497.134857 462.507690,498.315033 459.954590,499.972504 
	C452.764496,504.640167 445.063049,508.699707 438.584961,514.201965 
	C435.729675,516.627197 432.437408,516.938477 429.670593,518.933044 
	C423.871613,523.113647 417.762726,526.878113 411.661255,530.617920 
	C409.484894,531.951843 406.907471,533.678833 404.608459,533.548157 
	C399.756531,533.272522 396.636627,535.965149 393.046204,538.250671 
	C391.839691,539.018677 389.897491,538.521606 388.376495,538.923889 
	C382.196259,540.558350 375.696228,541.556702 369.972839,544.210449 
	C361.525543,548.127075 352.472595,548.138306 343.739716,550.092773 
	C339.695343,550.997986 335.369934,551.218750 331.652893,552.319885 
	C319.229736,556.000061 306.740631,552.838318 294.425934,554.201660 
	C289.889313,554.703857 285.931763,553.832764 281.669861,553.155518 
	C277.506989,552.493896 273.115967,553.368408 268.905762,552.877380 
	C264.010529,552.306396 259.227783,550.833618 254.350601,550.028442 
	C249.158844,549.171265 243.828552,549.007202 238.722031,547.831360 
	C235.352097,547.055420 232.391052,544.581726 229.029404,543.672180 
	C224.737549,542.511108 220.988449,539.360901 215.841904,540.681030 
	C214.247345,541.090027 211.976944,537.947510 209.765091,537.047791 
	C204.328812,534.836365 198.519806,533.447205 193.274628,530.881226 
	C184.686768,526.680054 176.419022,521.822693 168.033401,517.210938 
	C164.325409,515.171692 160.532181,513.248047 157.013275,510.916321 
	C154.022324,508.934479 151.414886,506.383240 148.557953,504.187805 
	C142.351517,499.418365 135.817215,495.034119 129.920105,489.912994 
	C120.180962,481.455353 111.231018,472.124725 102.454475,462.688690 
	C96.496346,456.282837 90.997162,449.372345 85.942238,442.227997 
	C81.660355,436.176117 78.237122,429.506500 74.565475,423.035583 
	C69.401169,413.933990 63.685215,405.062622 59.452312,395.538483 
	C55.179287,385.924072 52.334652,375.663788 49.045452,365.627075 
	C46.988792,359.351349 44.777836,353.060577 43.526794,346.604004 
	C42.151672,339.507080 41.892967,332.199707 40.946167,325.010590 
	C40.636833,322.661743 39.339546,320.427551 39.133022,318.084595 
	C38.874264,315.149170 39.211048,312.151703 39.405342,309.188507 
	C39.625282,305.834167 41.696915,302.378510 38.251511,299.300415 
	C37.568249,298.690002 37.899258,296.744995 38.040508,295.445648 
	C38.635799,289.969727 39.589779,284.520782 39.926697,279.032166 
	C40.259857,273.604828 39.806530,268.130493 40.104256,262.699036 
	C40.240952,260.205261 41.570919,257.801117 41.981495,255.294357 
	C45.662495,232.819855 52.215641,211.157547 61.102989,190.259155 
	C64.607735,182.017822 69.350494,174.267365 73.925789,166.527618 
	C77.942993,159.731979 82.393120,153.180252 86.881470,146.679199 
	C90.029732,142.119171 93.305077,137.595612 96.979362,133.460693 
	C104.544014,124.947701 111.801987,116.010574 120.309280,108.524284 
	C131.559372,98.624359 143.749512,89.763016 155.822723,80.843918 
	C160.151627,77.645943 165.245728,75.437996 170.112534,73.024048 
	C178.597687,68.815384 187.069580,64.550339 195.745636,60.763958 
	C205.863480,56.348351 216.063324,52.042412 226.485443,48.433502 
	C232.108200,46.486477 238.256287,46.016472 244.190796,45.019482 
	C252.587311,43.608875 260.983337,42.159969 269.421265,41.042381 
	C276.358673,40.123539 283.353607,39.626614 290.329224,39.013023 
	C294.904663,38.610554 299.508331,37.912224 304.068726,38.098022 
	C311.029480,38.381607 317.954926,39.443626 324.912689,39.923588 
	C329.002228,40.205700 333.197540,39.526714 337.214691,40.138004 
	C342.021271,40.869427 346.652222,42.682449 351.424896,43.726952 
	C358.172577,45.203682 365.068146,46.071606 371.736572,47.823643 
	C377.802368,49.417355 383.743713,51.610001 389.570679,53.958466 
	C398.323914,57.486336 406.981262,61.266075 415.581696,65.154839 
	C422.695709,68.371529 430.135254,71.193268 436.595459,75.455757 
	C446.586945,82.048225 455.541809,90.212639 465.537750,96.797394 
	C475.885162,103.613724 483.416199,113.296082 492.498138,121.371025 
	C497.400543,125.729866 500.996429,131.597702 504.991486,136.927322 
	C509.870239,143.435913 514.753296,149.958664 519.250977,156.730042 
	C522.909180,162.237564 525.994141,168.125183 529.348633,173.835266 
	C531.214050,177.010574 533.467651,180.012558 534.922791,183.363419 
	C538.485413,191.567398 541.744934,199.905441 545.015442,208.233139 
	C548.301392,216.600327 551.761963,224.919815 554.539001,233.457626 
	C556.020447,238.012115 556.253479,242.978500 556.987854,247.768494 
	C557.700256,252.415543 557.684998,257.301788 559.209778,261.655579 
	C560.392334,265.032227 559.041443,268.865082 560.293762,271.193481 
	C563.591736,277.325470 559.658386,283.361389 561.236694,288.931549 
	C562.773743,294.356018 562.185669,299.206116 561.134277,304.377533 
	C560.940247,305.331787 562.335754,306.609222 562.998779,308.173523 
M308.361206,307.000031 
	C296.150513,306.671783 283.941345,306.251190 271.728577,306.045319 
	C262.447754,305.888855 253.162354,306.004272 243.878983,306.002625 
	C243.213043,306.002502 242.522156,305.925110 241.885498,306.070404 
	C239.237656,306.674652 236.616348,307.857544 233.966812,307.910980 
	C223.306320,308.126007 212.638916,308.000000 201.974075,308.000000 
	C194.985031,308.000000 187.995407,308.051849 181.007248,307.973175 
	C178.407730,307.943909 175.809326,307.635956 173.214539,307.408051 
	C168.174423,306.965363 163.142532,306.399536 158.094406,306.102020 
	C157.067108,306.041473 155.952545,307.373077 154.932327,307.300690 
	C153.080521,307.169220 151.261917,306.038177 149.442459,306.069946 
	C138.359253,306.263214 127.280594,306.881775 116.198624,306.928040 
	C108.119461,306.961731 99.987083,305.662689 91.976845,306.265533 
	C87.565697,306.597504 81.163582,304.352905 78.988838,311.398895 
	C78.859825,311.816895 77.871979,311.929413 77.337852,312.269073 
	C72.694588,315.221924 69.840805,319.262756 70.026779,324.955353 
	C70.131950,328.174652 71.114708,331.477081 70.644585,334.581940 
	C69.346848,343.152679 71.615578,348.370850 79.695763,352.134186 
	C82.247444,353.322662 85.331566,353.835602 88.165558,353.813843 
	C90.799759,353.793671 93.429977,352.070435 96.054001,352.091400 
	C117.464828,352.262329 138.872955,352.803894 160.283722,352.935089 
	C169.353012,352.990662 178.425140,352.106842 187.498642,352.045532 
	C208.636856,351.902802 229.776932,351.937164 250.915787,352.019440 
	C268.579254,352.088165 286.218994,351.889679 303.870850,353.788330 
	C314.551208,354.937073 325.460449,354.180542 336.257477,353.908173 
	C340.407898,353.803436 344.516205,352.248993 348.671906,352.089294 
	C356.652679,351.782562 364.653625,352.000000 372.646179,352.000000 
	C398.970490,352.000000 425.294830,351.999817 451.619141,352.000610 
	C452.951965,352.000671 454.346741,351.752441 455.607635,352.056061 
	C464.400085,354.173187 473.013062,355.597565 482.028748,352.278198 
	C485.543671,350.984070 489.939545,351.754028 493.894531,352.073883 
	C498.057007,352.410522 502.158661,353.756531 506.311371,353.888000 
	C511.044403,354.037781 515.809326,353.387451 520.549500,352.962769 
	C521.795166,352.851135 523.450378,352.677673 524.150696,351.868744 
	C528.487976,346.858582 533.110718,341.925232 533.008911,334.599396 
	C532.958008,330.934692 533.036804,327.268219 532.992004,323.603363 
	C532.908752,316.795624 523.735413,307.271973 516.886047,307.032074 
	C512.237427,306.869263 507.576111,306.903290 502.924713,307.019501 
	C492.019867,307.291901 481.115143,307.973022 470.215179,307.886444 
	C463.537018,307.833405 456.877838,306.252380 450.192291,306.089081 
	C437.563416,305.780701 424.914978,305.740784 412.287170,306.069763 
	C398.467621,306.429840 384.667175,307.707672 370.849213,307.891479 
	C357.846649,308.064453 344.833344,307.267487 331.822388,307.025299 
	C324.325684,306.885742 316.824249,307.000000 308.361206,307.000031 
M194.498428,230.000000 
	C171.375839,230.008087 148.253265,230.019485 125.130676,230.022964 
	C111.996361,230.024948 98.861839,229.981323 85.728081,230.064438 
	C84.548927,230.071884 83.062294,230.547318 82.258156,231.347656 
	C80.051849,233.543549 78.464287,236.463638 76.034584,238.312012 
	C70.274147,242.694214 69.073769,245.435654 70.705742,252.427063 
	C71.071251,253.992905 71.158562,255.759323 70.840248,257.324890 
	C69.673584,263.062775 71.559273,269.143158 76.776497,271.807190 
	C80.931366,273.928802 85.807625,275.821960 90.348579,275.788239 
	C106.019791,275.671936 121.679848,274.387146 137.353668,274.131378 
	C144.144638,274.020599 150.955093,275.835846 157.763336,275.886658 
	C169.009842,275.970673 180.260193,275.235901 191.512268,275.058868 
	C194.921005,275.005219 198.876541,276.908997 201.647247,275.726624 
	C207.983139,273.022827 214.146881,277.938507 220.771362,274.608643 
	C224.715286,272.626160 230.711548,274.814209 235.789917,274.983398 
	C247.371353,275.369324 258.957123,275.982086 270.538635,275.931458 
	C291.786591,275.838593 313.031860,275.192657 334.279999,275.065338 
	C343.523376,275.009918 352.772522,275.973816 362.016449,275.929688 
	C376.742767,275.859436 391.465881,275.149536 406.192322,275.069611 
	C414.902679,275.022308 423.615387,275.901123 432.329468,275.953430 
	C455.009094,276.089600 477.690125,275.999481 500.370575,275.999634 
	C505.535889,275.999695 510.719299,275.730408 515.861450,276.075623 
	C521.005066,276.420959 524.865479,274.132904 527.714172,270.489502 
	C532.562805,264.288177 533.503113,256.926788 533.061523,249.183289 
	C532.515625,239.610199 522.839966,229.879639 513.272339,230.042526 
	C506.876984,230.151398 500.489502,230.687515 494.096191,230.981552 
	C492.610504,231.049866 491.102356,231.020691 489.626740,230.847305 
	C484.784546,230.278381 479.966736,229.339615 475.111816,229.096771 
	C471.724152,228.927322 468.287018,229.973587 464.879272,229.928177 
	C459.310883,229.854004 453.751556,229.257797 448.182343,229.027328 
	C444.689240,228.882767 440.634277,227.904999 437.836456,229.306900 
	C434.870758,230.792923 432.440887,229.467285 429.847900,229.989807 
	C423.007172,231.368317 416.067719,231.043152 409.161804,230.949692 
	C405.074463,230.894379 400.994690,230.121246 396.909668,230.103851 
	C393.327057,230.088577 389.745728,230.889786 386.157013,230.955109 
	C378.367950,231.096878 370.574585,230.998901 362.782959,230.998932 
	C344.967072,230.998993 327.150391,231.099503 309.335693,230.953735 
	C301.253845,230.887604 293.176849,230.309647 285.096069,230.006088 
	C275.538177,229.647034 265.979980,229.269638 256.418396,229.067230 
	C254.931427,229.035751 253.425629,229.893631 252.753754,230.094070 
	C242.940536,230.371353 233.515106,232.218491 224.813507,230.467819 
	C214.813705,228.455978 205.210403,231.319351 194.498428,230.000000 
M393.000000,410.478210 
	C393.264923,413.838043 393.529846,417.197906 393.684448,419.158752 
	C392.199188,418.109680 389.307159,417.097961 388.184662,415.094727 
	C383.487610,406.711975 379.398712,397.991211 374.930145,389.476624 
	C372.449799,384.750427 368.710022,380.454498 367.303253,375.466705 
	C366.124268,371.286407 364.324768,370.769287 360.901611,370.979645 
	C354.251678,371.388336 347.590820,371.617920 340.940399,372.019867 
	C337.365326,372.235901 333.807495,372.847839 330.233093,372.940247 
	C324.179108,373.096863 318.118164,372.983307 312.060120,372.983307 
	C311.920898,373.411591 311.781677,373.839874 311.642456,374.268188 
	C312.749451,375.173523 314.253815,375.859711 314.894897,377.022064 
	C317.720856,382.145905 320.207428,387.455811 322.984833,392.607819 
	C328.128876,402.149963 333.345764,411.653656 338.617523,421.125946 
	C342.529449,428.154877 346.580688,435.106232 350.561401,442.097015 
	C354.701904,449.368439 358.944031,456.585114 362.929626,463.940643 
	C365.810516,469.257446 367.942139,475.019836 371.185394,480.085724 
	C373.111816,483.094666 373.891235,487.933502 378.930298,487.937378 
	C380.946014,487.938934 382.955780,487.106781 384.979492,487.049072 
	C389.124847,486.930908 393.279236,487.025848 397.427185,487.135681 
	C400.693390,487.222168 403.968231,487.339508 407.215210,487.675537 
	C409.595795,487.921844 411.938080,488.918732 414.296204,488.914185 
	C418.027466,488.907043 422.001373,487.359680 425.438538,488.212891 
	C433.036133,490.098816 435.422607,484.625519 438.201782,480.046936 
	C439.261108,478.301727 438.374054,475.375031 438.374054,472.324890 
	C441.629974,471.792786 437.647858,469.563660 437.773926,467.813141 
	C437.983002,464.909393 439.092133,462.000305 438.913391,459.150482 
	C437.922791,443.357849 440.539673,427.559448 437.361023,411.665344 
	C435.658905,403.154083 437.694305,393.906494 437.946655,384.988434 
	C438.068512,380.682465 437.967712,376.370209 437.967712,372.992889 
	C431.717224,372.992889 425.168152,373.070129 418.622803,372.947876 
	C416.537079,372.908936 414.471741,372.191528 412.378784,372.043610 
	C407.457855,371.695740 402.527832,371.405884 397.597229,371.307709 
	C396.077484,371.277466 394.543915,371.942780 393.016663,372.289612 
	C394.232544,372.970764 395.462921,373.628296 396.649750,374.356781 
	C396.843872,374.475922 396.845856,374.908051 397.053223,375.564545 
	C393.955475,375.842194 390.078461,377.021027 392.250244,380.552094 
	C394.803009,384.702545 394.633270,388.588074 394.444427,392.915100 
	C394.296204,396.309967 395.034302,399.746552 394.849579,403.135742 
	C394.731567,405.300934 393.649719,407.413544 393.000000,410.478210 
M257.902802,372.624084 
	C253.118790,372.624084 248.334793,372.624084 243.550781,372.624084 
	C243.641571,372.889435 243.732346,373.154755 243.823135,373.420105 
	C242.137177,372.460846 240.451202,371.501556 238.746613,370.531708 
	C237.958374,373.162170 237.592804,374.878387 236.929764,376.470734 
	C236.075439,378.522461 234.902161,380.439758 234.011612,382.478455 
	C232.641876,385.614227 232.255554,390.031189 229.896301,391.684113 
	C226.330643,394.182251 225.450485,397.736481 223.655991,400.953644 
	C223.147614,401.865051 223.726227,403.382782 223.779907,404.213654 
	C219.843826,411.413513 215.855835,418.708374 211.867828,426.003204 
	C210.158798,420.960175 207.858047,415.464752 209.456268,411.568817 
	C211.476257,406.644806 210.558792,402.131012 210.898911,397.480469 
	C211.168121,393.799744 210.209122,390.037872 210.380066,386.339081 
	C210.610489,381.353882 211.402054,376.394623 211.889008,372.000000 
	C196.475128,372.000000 181.278244,372.000000 166.996185,372.000000 
	C166.996185,374.703918 167.219070,377.538635 166.907761,380.313446 
	C166.736847,381.836853 165.113815,383.250092 165.089188,384.728729 
	C164.919952,394.883728 164.928665,405.044006 165.080536,415.199585 
	C165.102356,416.657684 166.774338,418.137848 166.680649,419.540955 
	C166.501877,422.218994 165.122803,424.841492 165.081970,427.499939 
	C164.895386,439.653168 165.444580,451.832733 164.849548,463.959625 
	C164.426407,472.583801 166.527679,479.540710 173.259628,485.088745 
	C175.478455,486.917419 188.535721,489.599091 191.258789,487.753662 
	C195.110153,485.143585 199.397873,486.289337 203.175018,486.315826 
	C212.624359,486.381989 222.063904,487.848877 230.780441,488.684113 
	C249.374344,448.127899 268.565002,409.239014 292.981293,372.000061 
	C284.543243,372.000061 277.287506,371.994690 270.031799,372.002258 
	C266.214172,372.006226 262.396576,372.032654 257.902802,372.624084 
M437.999969,189.503174 
	C438.009277,184.674667 437.900421,179.842316 438.058167,175.018661 
	C438.250732,169.128281 438.929993,163.244553 438.915619,157.359131 
	C438.899994,150.957901 438.051880,144.557083 438.073700,138.157806 
	C438.099548,130.580856 438.811188,123.008598 438.961456,115.429070 
	C439.127838,107.037140 434.902588,102.892761 426.332153,103.042816 
	C420.288025,103.148651 414.253296,103.846558 408.209930,103.921806 
	C403.230682,103.983810 398.244934,103.519562 391.806763,103.221062 
	C392.335358,139.619080 392.859802,175.729431 393.379303,211.501022 
	C408.641327,211.501022 423.672302,211.501022 438.000000,211.501022 
	C438.000000,204.572739 438.000000,197.536819 437.999969,189.503174 
M279.000031,157.499863 
	C279.332886,165.409363 279.646759,173.319702 280.004486,181.228088 
	C280.302063,187.806702 281.341736,194.441101 280.794128,200.944839 
	C280.178009,208.262390 282.275574,211.086716 289.517212,209.988403 
	C300.789093,208.278809 312.012817,208.153702 323.500092,210.991821 
	C323.967804,209.808319 324.908783,208.513550 324.927429,207.205627 
	C325.057587,198.070023 324.996887,188.931702 324.997284,179.794250 
	C324.997742,169.140884 324.998199,158.487503 324.998535,147.834137 
	C324.998932,134.680893 325.205078,121.520737 324.764740,108.382248 
	C324.702789,106.534142 321.313904,103.138748 319.747803,103.294983 
	C313.844299,103.883865 308.229187,105.364716 302.015778,104.255486 
	C296.063629,103.192894 289.768494,103.858559 283.638855,104.116318 
	C282.066589,104.182426 279.322174,105.439545 279.218140,106.381630 
	C278.738770,110.722061 279.000732,115.144562 279.000366,119.537636 
	C278.999298,131.858398 279.000000,144.179169 279.000031,157.499863 
M210.000000,150.514267 
	C209.363876,145.219162 206.565994,138.796860 208.600800,134.894455 
	C211.616104,129.111679 208.376556,124.079163 209.714310,118.716835 
	C211.025696,113.460236 209.999939,107.620583 209.999939,102.489342 
	C202.193970,103.023651 195.067505,103.631935 187.928131,103.958076 
	C183.110199,104.178162 178.263565,103.805031 173.449509,104.064064 
	C169.783615,104.261322 166.189041,105.273682 166.042694,109.942314 
	C165.871429,115.406197 165.899170,120.881996 166.025528,126.348343 
	C166.285141,137.580383 166.704498,148.808655 166.981445,160.040375 
	C167.087738,164.351456 167.049011,168.668991 166.961731,172.981262 
	C166.840637,178.964584 166.501465,184.945114 166.467865,190.928024 
	C166.445908,194.834671 167.151657,198.765213 166.911057,202.646591 
	C166.448517,210.108078 165.978531,212.027237 174.741730,211.968872 
	C180.434479,211.930969 186.126511,211.403702 191.816513,211.442184 
	C197.853165,211.482986 203.887070,211.933548 209.984543,212.207962 
	C209.984543,209.698578 210.112015,208.023010 209.962082,206.372665 
	C209.373154,199.890594 208.086166,193.407028 208.185760,186.941406 
	C208.367813,175.124847 209.350952,163.320602 210.000000,150.514267 
z"/>
<path fill="#000000" opacity="1.000000" stroke="none" 
	d="
M308.843079,307.000000 
	C316.824249,307.000000 324.325684,306.885742 331.822388,307.025299 
	C344.833344,307.267487 357.846649,308.064453 370.849213,307.891479 
	C384.667175,307.707672 398.467621,306.429840 412.287170,306.069763 
	C424.914978,305.740784 437.563416,305.780701 450.192291,306.089081 
	C456.877838,306.252380 463.537018,307.833405 470.215179,307.886444 
	C481.115143,307.973022 492.019867,307.291901 502.924713,307.019501 
	C507.576111,306.903290 512.237427,306.869263 516.886047,307.032074 
	C523.735413,307.271973 532.908752,316.795624 532.992004,323.603363 
	C533.036804,327.268219 532.958008,330.934692 533.008911,334.599396 
	C533.110718,341.925232 528.487976,346.858582 524.150696,351.868744 
	C523.450378,352.677673 521.795166,352.851135 520.549500,352.962769 
	C515.809326,353.387451 511.044403,354.037781 506.311371,353.888000 
	C502.158661,353.756531 498.057007,352.410522 493.894531,352.073883 
	C489.939545,351.754028 485.543671,350.984070 482.028748,352.278198 
	C473.013062,355.597565 464.400085,354.173187 455.607635,352.056061 
	C454.346741,351.752441 452.951965,352.000671 451.619141,352.000610 
	C425.294830,351.999817 398.970490,352.000000 372.646179,352.000000 
	C364.653625,352.000000 356.652679,351.782562 348.671906,352.089294 
	C344.516205,352.248993 340.407898,353.803436 336.257477,353.908173 
	C325.460449,354.180542 314.551208,354.937073 303.870850,353.788330 
	C286.218994,351.889679 268.579254,352.088165 250.915787,352.019440 
	C229.776932,351.937164 208.636856,351.902802 187.498642,352.045532 
	C178.425140,352.106842 169.353012,352.990662 160.283722,352.935089 
	C138.872955,352.803894 117.464828,352.262329 96.054001,352.091400 
	C93.429977,352.070435 90.799759,353.793671 88.165558,353.813843 
	C85.331566,353.835602 82.247444,353.322662 79.695763,352.134186 
	C71.615578,348.370850 69.346848,343.152679 70.644585,334.581940 
	C71.114708,331.477081 70.131950,328.174652 70.026779,324.955353 
	C69.840805,319.262756 72.694588,315.221924 77.337852,312.269073 
	C77.871979,311.929413 78.859825,311.816895 78.988838,311.398895 
	C81.163582,304.352905 87.565697,306.597504 91.976845,306.265533 
	C99.987083,305.662689 108.119461,306.961731 116.198624,306.928040 
	C127.280594,306.881775 138.359253,306.263214 149.442459,306.069946 
	C151.261917,306.038177 153.080521,307.169220 154.932327,307.300690 
	C155.952545,307.373077 157.067108,306.041473 158.094406,306.102020 
	C163.142532,306.399536 168.174423,306.965363 173.214539,307.408051 
	C175.809326,307.635956 178.407730,307.943909 181.007248,307.973175 
	C187.995407,308.051849 194.985031,308.000000 201.974075,308.000000 
	C212.638916,308.000000 223.306320,308.126007 233.966812,307.910980 
	C236.616348,307.857544 239.237656,306.674652 241.885498,306.070404 
	C242.522156,305.925110 243.213043,306.002502 243.878983,306.002625 
	C253.162354,306.004272 262.447754,305.888855 271.728577,306.045319 
	C283.941345,306.251190 296.150513,306.671783 308.843079,307.000000 
z"/>
<path fill="#000000" opacity="1.000000" stroke="none" 
	d="
M194.997955,230.000000 
	C205.210403,231.319351 214.813705,228.455978 224.813507,230.467819 
	C233.515106,232.218491 242.940536,230.371353 252.753754,230.094070 
	C253.425629,229.893631 254.931427,229.035751 256.418396,229.067230 
	C265.979980,229.269638 275.538177,229.647034 285.096069,230.006088 
	C293.176849,230.309647 301.253845,230.887604 309.335693,230.953735 
	C327.150391,231.099503 344.967072,230.998993 362.782959,230.998932 
	C370.574585,230.998901 378.367950,231.096878 386.157013,230.955109 
	C389.745728,230.889786 393.327057,230.088577 396.909668,230.103851 
	C400.994690,230.121246 405.074463,230.894379 409.161804,230.949692 
	C416.067719,231.043152 423.007172,231.368317 429.847900,229.989807 
	C432.440887,229.467285 434.870758,230.792923 437.836456,229.306900 
	C440.634277,227.904999 444.689240,228.882767 448.182343,229.027328 
	C453.751556,229.257797 459.310883,229.854004 464.879272,229.928177 
	C468.287018,229.973587 471.724152,228.927322 475.111816,229.096771 
	C479.966736,229.339615 484.784546,230.278381 489.626740,230.847305 
	C491.102356,231.020691 492.610504,231.049866 494.096191,230.981552 
	C500.489502,230.687515 506.876984,230.151398 513.272339,230.042526 
	C522.839966,229.879639 532.515625,239.610199 533.061523,249.183289 
	C533.503113,256.926788 532.562805,264.288177 527.714172,270.489502 
	C524.865479,274.132904 521.005066,276.420959 515.861450,276.075623 
	C510.719299,275.730408 505.535889,275.999695 500.370575,275.999634 
	C477.690125,275.999481 455.009094,276.089600 432.329468,275.953430 
	C423.615387,275.901123 414.902679,275.022308 406.192322,275.069611 
	C391.465881,275.149536 376.742767,275.859436 362.016449,275.929688 
	C352.772522,275.973816 343.523376,275.009918 334.279999,275.065338 
	C313.031860,275.192657 291.786591,275.838593 270.538635,275.931458 
	C258.957123,275.982086 247.371353,275.369324 235.789917,274.983398 
	C230.711548,274.814209 224.715286,272.626160 220.771362,274.608643 
	C214.146881,277.938507 207.983139,273.022827 201.647247,275.726624 
	C198.876541,276.908997 194.921005,275.005219 191.512268,275.058868 
	C180.260193,275.235901 169.009842,275.970673 157.763336,275.886658 
	C150.955093,275.835846 144.144638,274.020599 137.353668,274.131378 
	C121.679848,274.387146 106.019791,275.671936 90.348579,275.788239 
	C85.807625,275.821960 80.931366,273.928802 76.776497,271.807190 
	C71.559273,269.143158 69.673584,263.062775 70.840248,257.324890 
	C71.158562,255.759323 71.071251,253.992905 70.705742,252.427063 
	C69.073769,245.435654 70.274147,242.694214 76.034584,238.312012 
	C78.464287,236.463638 80.051849,233.543549 82.258156,231.347656 
	C83.062294,230.547318 84.548927,230.071884 85.728081,230.064438 
	C98.861839,229.981323 111.996361,230.024948 125.130676,230.022964 
	C148.253265,230.019485 171.375839,230.008087 194.997955,230.000000 
z"/>
<path fill="#000000" opacity="1.000000" stroke="none" 
	d="
M393.000000,410.013977 
	C393.649719,407.413544 394.731567,405.300934 394.849579,403.135742 
	C395.034302,399.746552 394.296204,396.309967 394.444427,392.915100 
	C394.633270,388.588074 394.803009,384.702545 392.250244,380.552094 
	C390.078461,377.021027 393.955475,375.842194 397.053223,375.564545 
	C396.845856,374.908051 396.843872,374.475922 396.649750,374.356781 
	C395.462921,373.628296 394.232544,372.970764 393.016663,372.289612 
	C394.543915,371.942780 396.077484,371.277466 397.597229,371.307709 
	C402.527832,371.405884 407.457855,371.695740 412.378784,372.043610 
	C414.471741,372.191528 416.537079,372.908936 418.622803,372.947876 
	C425.168152,373.070129 431.717224,372.992889 437.967712,372.992889 
	C437.967712,376.370209 438.068512,380.682465 437.946655,384.988434 
	C437.694305,393.906494 435.658905,403.154083 437.361023,411.665344 
	C440.539673,427.559448 437.922791,443.357849 438.913391,459.150482 
	C439.092133,462.000305 437.983002,464.909393 437.773926,467.813141 
	C437.647858,469.563660 441.629974,471.792786 438.374054,472.324890 
	C438.374054,475.375031 439.261108,478.301727 438.201782,480.046936 
	C435.422607,484.625519 433.036133,490.098816 425.438538,488.212891 
	C422.001373,487.359680 418.027466,488.907043 414.296204,488.914185 
	C411.938080,488.918732 409.595795,487.921844 407.215210,487.675537 
	C403.968231,487.339508 400.693390,487.222168 397.427185,487.135681 
	C393.279236,487.025848 389.124847,486.930908 384.979492,487.049072 
	C382.955780,487.106781 380.946014,487.938934 378.930298,487.937378 
	C373.891235,487.933502 373.111816,483.094666 371.185394,480.085724 
	C367.942139,475.019836 365.810516,469.257446 362.929626,463.940643 
	C358.944031,456.585114 354.701904,449.368439 350.561401,442.097015 
	C346.580688,435.106232 342.529449,428.154877 338.617523,421.125946 
	C333.345764,411.653656 328.128876,402.149963 322.984833,392.607819 
	C320.207428,387.455811 317.720856,382.145905 314.894897,377.022064 
	C314.253815,375.859711 312.749451,375.173523 311.642456,374.268188 
	C311.781677,373.839874 311.920898,373.411591 312.060120,372.983307 
	C318.118164,372.983307 324.179108,373.096863 330.233093,372.940247 
	C333.807495,372.847839 337.365326,372.235901 340.940399,372.019867 
	C347.590820,371.617920 354.251678,371.388336 360.901611,370.979645 
	C364.324768,370.769287 366.124268,371.286407 367.303253,375.466705 
	C368.710022,380.454498 372.449799,384.750427 374.930145,389.476624 
	C379.398712,397.991211 383.487610,406.711975 388.184662,415.094727 
	C389.307159,417.097961 392.199188,418.109680 393.684448,419.158752 
	C393.529846,417.197906 393.264923,413.838043 393.000000,410.013977 
z"/>
<path fill="#000000" opacity="1.000000" stroke="none" 
	d="
M258.240875,372.336517 
	C262.396576,372.032654 266.214172,372.006226 270.031799,372.002258 
	C277.287506,371.994690 284.543243,372.000061 292.981293,372.000061 
	C268.565002,409.239014 249.374344,448.127899 230.780441,488.684113 
	C222.063904,487.848877 212.624359,486.381989 203.175018,486.315826 
	C199.397873,486.289337 195.110153,485.143585 191.258789,487.753662 
	C188.535721,489.599091 175.478455,486.917419 173.259628,485.088745 
	C166.527679,479.540710 164.426407,472.583801 164.849548,463.959625 
	C165.444580,451.832733 164.895386,439.653168 165.081970,427.499939 
	C165.122803,424.841492 166.501877,422.218994 166.680649,419.540955 
	C166.774338,418.137848 165.102356,416.657684 165.080536,415.199585 
	C164.928665,405.044006 164.919952,394.883728 165.089188,384.728729 
	C165.113815,383.250092 166.736847,381.836853 166.907761,380.313446 
	C167.219070,377.538635 166.996185,374.703918 166.996185,372.000000 
	C181.278244,372.000000 196.475128,372.000000 211.889008,372.000000 
	C211.402054,376.394623 210.610489,381.353882 210.380066,386.339081 
	C210.209122,390.037872 211.168121,393.799744 210.898911,397.480469 
	C210.558792,402.131012 211.476257,406.644806 209.456268,411.568817 
	C207.858047,415.464752 210.158798,420.960175 211.867828,426.003204 
	C215.855835,418.708374 219.843826,411.413513 223.779907,404.213654 
	C223.726227,403.382782 223.147614,401.865051 223.655991,400.953644 
	C225.450485,397.736481 226.330643,394.182251 229.896301,391.684113 
	C232.255554,390.031189 232.641876,385.614227 234.011612,382.478455 
	C234.902161,380.439758 236.075439,378.522461 236.929764,376.470734 
	C237.592804,374.878387 237.958374,373.162170 238.746613,370.531708 
	C240.451202,371.501556 242.137177,372.460846 243.823135,373.420105 
	C243.732346,373.154755 243.641571,372.889435 243.550781,372.624084 
	C248.334793,372.624084 253.118790,372.624084 258.240875,372.336517 
z"/>
<path fill="#000000" opacity="1.000000" stroke="none" 
	d="
M438.000000,190.002045 
	C438.000000,197.536819 438.000000,204.572739 438.000000,211.501022 
	C423.672302,211.501022 408.641327,211.501022 393.379303,211.501022 
	C392.859802,175.729431 392.335358,139.619080 391.806763,103.221062 
	C398.244934,103.519562 403.230682,103.983810 408.209930,103.921806 
	C414.253296,103.846558 420.288025,103.148651 426.332153,103.042816 
	C434.902588,102.892761 439.127838,107.037140 438.961456,115.429070 
	C438.811188,123.008598 438.099548,130.580856 438.073700,138.157806 
	C438.051880,144.557083 438.899994,150.957901 438.915619,157.359131 
	C438.929993,163.244553 438.250732,169.128281 438.058167,175.018661 
	C437.900421,179.842316 438.009277,184.674667 438.000000,190.002045 
z"/>
<path fill="#000000" opacity="1.000000" stroke="none" 
	d="
M279.000000,156.999908 
	C279.000000,144.179169 278.999298,131.858398 279.000366,119.537636 
	C279.000732,115.144562 278.738770,110.722061 279.218140,106.381630 
	C279.322174,105.439545 282.066589,104.182426 283.638855,104.116318 
	C289.768494,103.858559 296.063629,103.192894 302.015778,104.255486 
	C308.229187,105.364716 313.844299,103.883865 319.747803,103.294983 
	C321.313904,103.138748 324.702789,106.534142 324.764740,108.382248 
	C325.205078,121.520737 324.998932,134.680893 324.998535,147.834137 
	C324.998199,158.487503 324.997742,169.140884 324.997284,179.794250 
	C324.996887,188.931702 325.057587,198.070023 324.927429,207.205627 
	C324.908783,208.513550 323.967804,209.808319 323.500092,210.991821 
	C312.012817,208.153702 300.789093,208.278809 289.517212,209.988403 
	C282.275574,211.086716 280.178009,208.262390 280.794128,200.944839 
	C281.341736,194.441101 280.302063,187.806702 280.004486,181.228088 
	C279.646759,173.319702 279.332886,165.409363 279.000000,156.999908 
z"/>
<path fill="#000000" opacity="1.000000" stroke="none" 
	d="
M210.000000,151.012756 
	C209.350952,163.320602 208.367813,175.124847 208.185760,186.941406 
	C208.086166,193.407028 209.373154,199.890594 209.962082,206.372665 
	C210.112015,208.023010 209.984543,209.698578 209.984543,212.207962 
	C203.887070,211.933548 197.853165,211.482986 191.816513,211.442184 
	C186.126511,211.403702 180.434479,211.930969 174.741730,211.968872 
	C165.978531,212.027237 166.448517,210.108078 166.911057,202.646591 
	C167.151657,198.765213 166.445908,194.834671 166.467865,190.928024 
	C166.501465,184.945114 166.840637,178.964584 166.961731,172.981262 
	C167.049011,168.668991 167.087738,164.351456 166.981445,160.040375 
	C166.704498,148.808655 166.285141,137.580383 166.025528,126.348343 
	C165.899170,120.881996 165.871429,115.406197 166.042694,109.942314 
	C166.189041,105.273682 169.783615,104.261322 173.449509,104.064064 
	C178.263565,103.805031 183.110199,104.178162 187.928131,103.958076 
	C195.067505,103.631935 202.193970,103.023651 209.999939,102.489342 
	C209.999939,107.620583 211.025696,113.460236 209.714310,118.716835 
	C208.376556,124.079163 211.616104,129.111679 208.600800,134.894455 
	C206.565994,138.796860 209.363876,145.219162 210.000000,151.012756 
z"/>
</svg>