<?xml version="1.0" standalone="no"?>
<!DOCTYPE svg PUBLIC "-//W3C//DTD SVG 20010904//EN"
 "http://www.w3.org/TR/2001/REC-SVG-20010904/DTD/svg10.dtd">
<svg version="1.0" xmlns="http://www.w3.org/2000/svg"
 width="87.000000pt" height="88.000000pt" viewBox="0 0 87.000000 88.000000"
 preserveAspectRatio="xMidYMid meet">

<g transform="translate(0.000000,88.000000) scale(0.100000,-0.100000)"
fill="#000000" stroke="none">
<path d="M47 843 c-4 -3 -7 -183 -7 -400 l0 -393 400 0 400 0 0 400 0 400
-393 0 c-217 0 -397 -3 -400 -7z m778 -398 l0 -380 -380 0 -380 0 -3 370 c-1
203 0 376 3 383 3 10 85 12 382 10 l378 -3 0 -380z"/>
<path d="M150 566 c0 -10 83 -221 90 -229 4 -4 17 16 30 45 l23 53 24 -55 25
-55 48 120 c26 66 44 122 39 123 -22 8 -37 -9 -59 -67 -12 -34 -26 -61 -31
-61 -18 0 -21 52 -6 91 15 39 15 39 -9 39 -13 0 -24 -5 -24 -12 0 -9 -3 -9
-12 0 -12 12 -48 17 -48 7 0 -3 7 -22 15 -42 13 -30 13 -43 4 -66 l-12 -29
-27 68 c-21 52 -33 70 -49 72 -11 2 -21 1 -21 -2z"/>
<path d="M450 568 c0 -2 22 -58 48 -126 l48 -123 24 58 24 58 23 -54 c13 -29
25 -52 27 -50 3 3 37 86 94 227 3 10 -2 13 -18 10 -17 -2 -29 -19 -50 -73
l-28 -70 -12 30 c-10 24 -9 38 4 73 14 39 14 42 -2 42 -10 0 -23 -5 -29 -11
-8 -8 -13 -8 -17 0 -7 11 -46 16 -46 6 0 -2 7 -20 16 -39 16 -33 13 -86 -5
-86 -4 0 -19 28 -32 63 -19 47 -30 63 -47 65 -12 2 -22 2 -22 0z"/>
</g>
</svg>
